<svg width="225" height="195" viewBox="0 0 225 195" fill="none" xmlns="http://www.w3.org/2000/svg">
<path d="M114.674 96.7145C118.186 112.216 109.939 138.608 96.2975 161.432C88.9467 173.73 97.8217 195 112.149 195H208C216.284 195 223 188.284 223 180V15.3072C223 7.07707 216.376 0.383467 208.146 0.319171C169.042 0.013671 108.799 -0.26302 96.5618 0.44528C79.1461 1.45334 107.708 65.9688 114.674 96.7145Z" fill="#63E7A7" fill-opacity="0.5"/>
<path d="M67.7528 96.7145C72.4501 110.996 62.658 134.522 45.602 155.984C35.8705 168.23 44.7727 195 60.4142 195H210C218.284 195 225 188.284 225 180V15.35C225 7.10306 218.366 0.402694 210.12 0.35604C153.808 0.0374728 59.9371 -0.291454 41.4607 0.44528C16.1798 1.45334 57.6404 65.9688 67.7528 96.7145Z" fill="#63E7A7" fill-opacity="0.4"/>
</svg>
