<svg width="250" height="211" viewBox="0 0 250 211" fill="none" xmlns="http://www.w3.org/2000/svg">
<g clip-path="url(#clip0)">
<path d="M127.593 210.732C185.785 210.732 232.959 163.558 232.959 105.366C232.959 47.174 185.785 0 127.593 0C69.4004 0 22.2264 47.174 22.2264 105.366C22.2264 163.558 69.4004 210.732 127.593 210.732Z" fill="#FAEFE9"/>
<path d="M186.069 59.4303H121.459V159.48H186.069V59.4303Z" fill="white"/>
<path d="M108.509 120.496H174.755" stroke="black" stroke-miterlimit="10"/>
<path d="M108.509 127.039H174.755" stroke="black" stroke-miterlimit="10"/>
<path d="M108.509 133.582H174.755" stroke="black" stroke-miterlimit="10"/>
<path d="M108.509 140.125H174.755" stroke="black" stroke-miterlimit="10"/>
<path d="M153.764 105.503C163.099 105.503 170.666 97.9352 170.666 88.6003C170.666 79.2655 163.099 71.6981 153.764 71.6981C144.429 71.6981 136.862 79.2655 136.862 88.6003C136.862 97.9352 144.429 105.503 153.764 105.503Z" fill="#F2F2F2"/>
<path opacity="0.7" d="M201.472 95.0068H174.755V119.815H201.472V95.0068Z" fill="#50B89D"/>
<path d="M186.001 120.606L196.428 124.82V128.085L182.803 121.772V119.34L196.428 113.044V116.309L186.001 120.606ZM184.552 173.415H181.903L192.03 147.081H194.662L184.552 173.415ZM194.845 200.506L183.835 196.192V193.027L198.06 199.324V201.756L183.835 208.069V204.87L194.845 200.506Z" fill="white"/>
<path d="M154.036 10.2231H9.82233V105.094H154.036V10.2231Z" stroke="black" stroke-miterlimit="10"/>
<path d="M9.82233 15.2665H154.036" stroke="black" stroke-miterlimit="10"/>
<path d="M63.664 23.7177H20.3181V67.0636H63.664V23.7177Z" stroke="black" stroke-miterlimit="10"/>
<path d="M71.9788 27.5343H138.225" stroke="black" stroke-miterlimit="10"/>
<path d="M71.9788 34.077H138.225" stroke="black" stroke-miterlimit="10"/>
<path d="M71.9788 40.6199H138.225" stroke="black" stroke-miterlimit="10"/>
<path d="M71.9788 47.1626H138.225" stroke="black" stroke-miterlimit="10"/>
<path opacity="0.44" d="M41.991 35.1676L30.1868 55.6138H53.7953L41.991 35.1676Z" fill="#50B89D"/>
<path d="M12.9574 14.0397C13.635 14.0397 14.1842 13.4905 14.1842 12.813C14.1842 12.1354 13.635 11.5862 12.9574 11.5862C12.2799 11.5862 11.7307 12.1354 11.7307 12.813C11.7307 13.4905 12.2799 14.0397 12.9574 14.0397Z" fill="#AB8DE5"/>
<path d="M17.183 14.0397C17.8605 14.0397 18.4097 13.4905 18.4097 12.813C18.4097 12.1354 17.8605 11.5862 17.183 11.5862C16.5054 11.5862 15.9562 12.1354 15.9562 12.813C15.9562 13.4905 16.5054 14.0397 17.183 14.0397Z" fill="#73E5E2"/>
<path d="M21.4085 14.0397C22.0861 14.0397 22.6353 13.4905 22.6353 12.813C22.6353 12.1354 22.0861 11.5862 21.4085 11.5862C20.731 11.5862 20.1818 12.1354 20.1818 12.813C20.1818 13.4905 20.731 14.0397 21.4085 14.0397Z" fill="#50B89D"/>
<path d="M73.3419 87.578L77.4311 83.9658H73.2601L73.3419 87.578Z" fill="#AB8DE5"/>
<path d="M95.2385 70.4713H74.8904C71.7768 70.4713 69.2527 72.9954 69.2527 76.109V78.737C69.2527 81.8507 71.7768 84.3747 74.8904 84.3747H95.2385C98.3521 84.3747 100.876 81.8507 100.876 78.737V76.109C100.876 72.9954 98.3521 70.4713 95.2385 70.4713Z" fill="#AB8DE5"/>
<path d="M80.8388 78.6498C81.5164 78.6498 82.0656 78.1006 82.0656 77.4231C82.0656 76.7455 81.5164 76.1963 80.8388 76.1963C80.1613 76.1963 79.6121 76.7455 79.6121 77.4231C79.6121 78.1006 80.1613 78.6498 80.8388 78.6498Z" fill="white"/>
<path d="M85.0644 78.6498C85.742 78.6498 86.2912 78.1006 86.2912 77.4231C86.2912 76.7455 85.742 76.1963 85.0644 76.1963C84.3869 76.1963 83.8376 76.7455 83.8376 77.4231C83.8376 78.1006 84.3869 78.6498 85.0644 78.6498Z" fill="white"/>
<path d="M89.2899 78.6498C89.9675 78.6498 90.5167 78.1006 90.5167 77.4231C90.5167 76.7455 89.9675 76.1963 89.2899 76.1963C88.6124 76.1963 88.0632 76.7455 88.0632 77.4231C88.0632 78.1006 88.6124 78.6498 89.2899 78.6498Z" fill="white"/>
<path d="M202.835 46.6855L198.745 43.0734H202.916L202.835 46.6855Z" fill="#73E5E2"/>
<path d="M180.938 43.4824H201.286C204.4 43.4824 206.924 40.9583 206.924 37.8447V35.2167C206.924 32.1031 204.4 29.579 201.286 29.579L180.938 29.579C177.824 29.579 175.3 32.1031 175.3 35.2167V37.8447C175.3 40.9583 177.824 43.4824 180.938 43.4824Z" fill="#73E5E2"/>
<path d="M195.338 37.7574C196.015 37.7574 196.564 37.2081 196.564 36.5306C196.564 35.8531 196.015 35.3038 195.338 35.3038C194.66 35.3038 194.111 35.8531 194.111 36.5306C194.111 37.2081 194.66 37.7574 195.338 37.7574Z" fill="white"/>
<path d="M191.112 37.7574C191.79 37.7574 192.339 37.2081 192.339 36.5306C192.339 35.8531 191.79 35.3038 191.112 35.3038C190.435 35.3038 189.885 35.8531 189.885 36.5306C189.885 37.2081 190.435 37.7574 191.112 37.7574Z" fill="white"/>
<path d="M186.887 37.7574C187.564 37.7574 188.113 37.2081 188.113 36.5306C188.113 35.8531 187.564 35.3038 186.887 35.3038C186.209 35.3038 185.66 35.8531 185.66 36.5306C185.66 37.2081 186.209 37.7574 186.887 37.7574Z" fill="white"/>
<path d="M200.654 12.813C201.331 12.813 201.881 12.2638 201.881 11.5863C201.881 10.9087 201.331 10.3595 200.654 10.3595C199.976 10.3595 199.427 10.9087 199.427 11.5863C199.427 12.2638 199.976 12.813 200.654 12.813Z" fill="#F98B67"/>
<path d="M203.244 17.8564C203.921 17.8564 204.47 17.3071 204.47 16.6296C204.47 15.9521 203.921 15.4028 203.244 15.4028C202.566 15.4028 202.017 15.9521 202.017 16.6296C202.017 17.3071 202.566 17.8564 203.244 17.8564Z" fill="#F98B67"/>
<path d="M175.028 68.2904C176.082 68.2904 176.936 67.436 176.936 66.3821C176.936 65.3281 176.082 64.4738 175.028 64.4738C173.974 64.4738 173.119 65.3281 173.119 66.3821C173.119 67.436 173.974 68.2904 175.028 68.2904Z" fill="#F98B67"/>
<path d="M186.205 74.8332C187.259 74.8332 188.113 73.9788 188.113 72.9249C188.113 71.871 187.259 71.0166 186.205 71.0166C185.151 71.0166 184.297 71.871 184.297 72.9249C184.297 73.9788 185.151 74.8332 186.205 74.8332Z" fill="#F98B67"/>
<path d="M14.4568 77.0141C15.5107 77.0141 16.3651 76.1598 16.3651 75.1058C16.3651 74.0519 15.5107 73.1975 14.4568 73.1975C13.4028 73.1975 12.5485 74.0519 12.5485 75.1058C12.5485 76.1598 13.4028 77.0141 14.4568 77.0141Z" fill="#F98B67"/>
<path d="M179.444 162.275V162.002L178.79 161.184L177.277 159.347L175.668 157.4C175.668 157.4 174.12 156.329 173.722 156.144C172.272 155.473 170.843 154.961 169.137 154.961C168.087 154.961 164.164 155.119 164.156 155.778C164.156 156.757 169.649 160.462 173.678 162.261C175.448 162.275 179.444 162.275 179.444 162.275Z" fill="#1F161E"/>
<path d="M178.613 162.275C173.021 157.973 161.607 134.509 164.535 125.812C170.767 128.988 177.604 139.939 180.829 149.186C181.002 149.788 181.142 150.399 181.246 151.016L182.555 157.013L182.871 162.283L178.613 162.275Z" fill="#FBDC8E"/>
<path d="M182.429 162.275C180.543 160.743 179.94 156.206 179.924 154.514C179.894 151.354 180.379 149.026 183.081 145.55C185.782 142.074 185.063 136.308 188.65 132.418C192.238 128.528 194.615 127.443 198.873 127.443C203.132 127.443 204.484 134.345 204.462 136.082C204.413 143.088 199.999 144.081 197.306 147.423C195.351 149.849 195.199 151.834 194.607 152.968C191.434 159.08 188.855 161.378 186.947 162.275" fill="#73E5E2"/>
<path d="M183.471 161.768C183.525 149.819 196.117 131.873 198.808 129.182" stroke="white" stroke-width="0.4" stroke-linecap="round" stroke-linejoin="round"/>
<path d="M184.149 156.337C182.756 154.819 181.489 150.514 181.68 149.396" stroke="white" stroke-width="0.4" stroke-linecap="round" stroke-linejoin="round"/>
<path d="M180.581 161.244C178.607 157.747 169.243 140.692 165.751 128.13" stroke="white" stroke-width="0.4" stroke-linecap="round" stroke-linejoin="round"/>
<path d="M186.957 162.275H192.824L187.917 180.54H174.796L169.968 162.275H186.957Z" fill="#B37361"/>
<path d="M166.075 156.149C168.935 156.345 172.533 156.476 175.071 158.207" stroke="white" stroke-width="0.4" stroke-linecap="round" stroke-linejoin="round"/>
<path d="M211.406 87.5098C210.716 90.8002 205.705 131.616 207.344 141.365C208.982 151.114 235.696 171.541 236.865 171.898C238.228 170.898 240.235 167.618 240.235 167.618C240.235 167.618 220.647 144.912 220.274 144.001C219.9 143.091 224.565 90.5085 224.565 90.5085L211.406 87.5098Z" fill="#1F161E"/>
<path d="M243.307 94.9386L223.322 176.454H216.591L223.412 91.4164L243.307 94.9386Z" fill="#AB8DE5"/>
<path d="M229.112 48.2666C231.871 48.2666 246.262 48.7328 248.863 53.798C251.464 58.8632 249.013 82.2755 247.397 83.1833C246.524 83.6713 246.287 83.1969 246.033 84.1892C245.78 85.1816 243.307 94.9385 243.307 94.9385C241.737 94.9821 218.843 91.5335 211.411 87.5015C211.455 86.3811 211.815 83.4668 211.815 83.2433C210.828 83.6467 209.634 83.7312 209.307 83.2433C206.406 78.8514 210.73 55.9544 213.832 51.3472C215.151 49.3707 224.685 48.2802 229.112 48.2666Z" fill="#FBDC8E"/>
<path d="M238.588 83.8158C239.264 83.8158 245.085 87.9051 244.586 89.9142C244.995 88.3004 246.282 83.3142 246.282 83.3142C245.728 83.4205 239.084 83.824 238.588 83.8158Z" fill="#1F161E"/>
<path d="M232.675 50.9384C232.675 51.8271 225.666 51.8271 225.666 50.9384V41.942H232.675V50.9384Z" fill="#F8CDBA"/>
<path d="M228.654 44.0711C229.199 44.0711 232.675 45.6087 232.675 46.4647V41.942C231.808 41.942 228.654 44.0711 228.654 44.0711Z" fill="#1F161E"/>
<path d="M227.695 44.7282C231.46 44.7282 234.513 41.6756 234.513 37.9101C234.513 34.1445 231.46 31.0919 227.695 31.0919C223.929 31.0919 220.876 34.1445 220.876 37.9101C220.876 41.6756 223.929 44.7282 227.695 44.7282Z" fill="#F8CDBA"/>
<path d="M225.388 27.9431C221.888 27.9431 219.707 30.1404 219.707 32.9565C219.707 35.2983 220.274 36.6232 220.942 36.9585C221.364 34.6849 222.283 33.6326 223.044 33.1801C223.635 33.6326 224.647 34.7285 225.999 35.0666C227.351 35.4046 230.87 35.3392 233.714 37.4056C234.644 36.5605 235.57 35.4619 235.57 34.1669C235.57 32.872 234.998 31.2472 231.631 30.3094C229.407 29.6906 229.096 27.9431 225.388 27.9431Z" fill="#1F161E"/>
<path d="M221.324 39.9355C221.983 39.9355 222.518 39.6572 222.518 39.314C222.518 38.9707 221.983 38.6924 221.324 38.6924C220.664 38.6924 220.129 38.9707 220.129 39.314C220.129 39.6572 220.664 39.9355 221.324 39.9355Z" fill="#FA9E9F"/>
<path d="M228.834 39.9355C229.494 39.9355 230.028 39.6572 230.028 39.314C230.028 38.9707 229.494 38.6924 228.834 38.6924C228.175 38.6924 227.64 38.9707 227.64 39.314C227.64 39.6572 228.175 39.9355 228.834 39.9355Z" fill="#FA9E9F"/>
<path d="M224.241 38.0244C224.017 38.3434 222.878 39.6819 224.08 40.2217" stroke="#1F161E" stroke-miterlimit="10" stroke-linecap="round"/>
<path d="M226.487 41.7866C226.847 41.7866 227.4 41.3395 227.692 40.9387" stroke="#1F161E" stroke-miterlimit="10" stroke-linecap="round"/>
<path d="M233.997 40.2708C234.868 40.2708 235.573 39.5654 235.573 38.6951C235.573 37.8249 234.868 37.1194 233.997 37.1194C233.127 37.1194 232.422 37.8249 232.422 38.6951C232.422 39.5654 233.127 40.2708 233.997 40.2708Z" fill="#F8CDBA"/>
<path d="M238.746 61.6821C238.624 63.187 238.144 70.6239 238.324 71.6026C236.037 72.3987 215.094 82.3301 211.471 83.4205" stroke="#1F161E" stroke-miterlimit="10" stroke-linecap="round"/>
<path d="M214.424 59.3348C213.941 61.0196 212.316 68.6665 213.459 72.2187" stroke="#1F161E" stroke-miterlimit="10" stroke-linecap="round"/>
<path d="M219.77 79.9419C220.86 80.7079 231.312 85.3342 245.764 83.5895" stroke="#1F161E" stroke-miterlimit="10" stroke-linecap="round"/>
<path d="M218.769 72.2188C219.47 72.3305 217.185 70.5067 215.89 71.1855C214.595 71.8643 212.851 74.9367 213.208 75.6483C213.256 75.7774 213.332 75.8941 213.431 75.9898C213.531 76.0855 213.65 76.1577 213.781 76.2011C213.912 76.2445 214.051 76.2581 214.187 76.2407C214.324 76.2233 214.455 76.1755 214.571 76.1008C214.922 75.8745 217.548 72.0225 218.769 72.2188Z" fill="#F8CDBA"/>
<path d="M240.011 167.953C240.385 168.226 243.697 170.467 243.724 171.879C243.752 173.291 240.638 177.972 240.011 178.106C239.384 178.239 238.937 177.71 238.937 176.764C238.937 175.818 240.12 174.161 239.962 173.425C239.804 172.689 238.275 171.342 237.49 171.317" fill="#1F161E"/>
<path d="M222.684 176.454C222.684 177.102 223.06 181.175 222.308 181.554C221.555 181.933 213.251 182.157 212.875 181.781C212.499 181.404 212.27 180.611 212.602 180.385C212.935 180.158 216.147 179.515 216.583 179.215C217.019 178.915 217.621 177.307 217.401 176.454" fill="#1F161E"/>
<path d="M59.8092 146.215H7.0907V172.956H59.8092V146.215Z" fill="#B37361"/>
<path d="M85.7814 133.683C86.0104 135.046 89.8979 166.209 90.5276 166.724C91.1574 167.239 97.8446 168.381 98.4171 167.525C98.5316 166.162 98.6897 144.429 99.0441 142.486" fill="#1F161E"/>
<path d="M10.5666 127.181C7.87038 125.853 13.4917 152.172 28.2866 152.172C43.0815 152.172 67.985 129.635 72.017 129.635C80.9179 129.635 101.988 147.109 103.64 147.109C104.905 145.844 107.435 143.631 107.435 142.747C107.435 141.864 87.2617 108.67 72.1669 108.67C66.3139 108.679 16.6541 130.188 10.5666 127.181Z" fill="#50B89D"/>
<path d="M18.8923 127.628C21.8502 126.957 25.5305 125.221 28.7882 123.446C19.9255 126.344 12.663 128.217 10.5666 127.181C9.13806 126.478 10.0431 133.522 13.4018 140.307C12.7938 138.996 11.9269 129.22 18.8923 127.628Z" fill="#1F161E"/>
<path d="M25.4132 81.4578C27.7441 81.5205 39.8782 81.1634 43.2042 84.3312C45.6713 86.6812 53.3428 106.89 54.5259 113.986C49.3735 116.606 12.2104 134.4 0.708743 126.576C0.45521 120.496 1.63564 96.329 9.15712 83.6551C11.9078 81.8231 23.1723 81.4006 25.4132 81.4578Z" fill="#73E5E2"/>
<path d="M30.1404 75.6755H23.0524V83.2924C23.0524 85.2008 30.1404 85.1844 30.1404 83.2924V75.6755Z" fill="#F8CDBA"/>
<path d="M23.0524 80.2746C23.0524 79.4295 25.3941 77.3059 26.8417 77.3822C26.8772 76.4417 23.5349 75.0895 23.5349 75.0895L23.0524 76.3899V80.2746Z" fill="#1F161E"/>
<path d="M37.5638 75.6756C37.7229 74.9383 37.8033 74.1862 37.8037 73.4319C37.8037 67.8106 33.4118 63.2524 27.9895 63.2524C22.5671 63.2524 18.1753 67.8106 18.1753 73.4319C18.1756 74.1862 18.256 74.9383 18.4152 75.6756H37.5638Z" fill="#1F161E"/>
<path d="M34.9767 68.8139C33.7744 68.6312 32.5749 67.6852 31.738 67.0664C26.9672 70.5613 23.9112 70.6077 23.5813 70.6077C23.2514 70.6077 21.9074 72.5378 21.2886 72.7559L21.2341 72.7232C21.4181 73.7388 21.8113 74.705 22.3887 75.5604C22.9662 76.4159 23.7152 77.1419 24.5883 77.6923C25.4614 78.2427 26.4394 78.6055 27.4603 78.7577C28.4811 78.9098 29.5224 78.8479 30.5181 78.576C31.5137 78.3041 32.4419 77.8281 33.2437 77.1781C34.0455 76.5282 34.7034 75.7187 35.1755 74.8009C35.6476 73.8831 35.9236 72.8771 35.9861 71.8469C36.0485 70.8167 35.896 69.7847 35.5382 68.8166C35.3516 68.8388 35.163 68.8379 34.9767 68.8139V68.8139Z" fill="#F8CDBA"/>
<path d="M22.6734 64.5201C24.2724 64.5201 25.5686 63.2239 25.5686 61.6249C25.5686 60.026 24.2724 58.7297 22.6734 58.7297C21.0745 58.7297 19.7783 60.026 19.7783 61.6249C19.7783 63.2239 21.0745 64.5201 22.6734 64.5201Z" fill="#1F161E"/>
<path d="M23.9629 70.4523C23.65 70.4671 23.3549 70.6018 23.1387 70.8284C22.9225 71.0551 22.8019 71.3563 22.8019 71.6695C22.8019 71.9827 22.9225 72.2839 23.1387 72.5106C23.3549 72.7372 23.65 72.8719 23.9629 72.8867" stroke="#1F161E" stroke-miterlimit="10" stroke-linecap="round"/>
<path d="M33.2428 70.6077C33.5999 71.0847 34.5186 71.9217 33.2428 72.8077" stroke="#1F161E" stroke-miterlimit="10" stroke-linecap="round"/>
<path d="M29.3744 73.4456C29.3744 73.8027 29.5271 74.656 30.2931 74.8768" stroke="#1F161E" stroke-miterlimit="10" stroke-linecap="round"/>
<path d="M26.9999 73.5301C27.6202 73.5301 28.1231 73.2689 28.1231 72.9467C28.1231 72.6245 27.6202 72.3633 26.9999 72.3633C26.3796 72.3633 25.8767 72.6245 25.8767 72.9467C25.8767 73.2689 26.3796 73.5301 26.9999 73.5301Z" fill="#FA9E9F"/>
<path d="M35.3501 73.5301C35.9704 73.5301 36.4733 73.2689 36.4733 72.9467C36.4733 72.6245 35.9704 72.3633 35.3501 72.3633C34.7298 72.3633 34.2269 72.6245 34.2269 72.9467C34.2269 73.2689 34.7298 73.5301 35.3501 73.5301Z" fill="#FA9E9F"/>
<path d="M42.9479 102.523L50.5239 100.574C51.2518 101.811 54.7958 113.973 54.7958 113.973L43.1006 118.902C43.2533 116.598 43.714 106.048 42.9479 102.523Z" fill="#F8CDBA"/>
<path d="M16.3842 100.617C16.3842 101.533 15.6127 105.02 15.1574 106.658" stroke="#1F161E" stroke-miterlimit="10" stroke-linecap="round"/>
<path d="M42.9479 102.523C42.7652 101.081 41.6966 92.954 39.8782 88.6766" stroke="#1F161E" stroke-miterlimit="10" stroke-linecap="round"/>
<path d="M42.9479 102.523L50.5239 100.574C51.2518 101.811 54.7958 113.973 54.7958 113.973L43.1006 118.902C43.2533 116.598 43.714 106.048 42.9479 102.523Z" fill="#F8CDBA"/>
<path d="M103.867 146.466C104.036 146.738 106.293 149.508 107.092 149.538C107.891 149.568 112.74 146.283 112.528 145.577C112.315 144.871 109.273 145.332 108.749 145.084C108.226 144.836 107.056 143.669 106.866 143.151" fill="#1F161E"/>
<path d="M91.9398 167.013C91.8825 167.315 91.5745 170.884 92.1279 171.462C92.6813 172.04 98.4526 173.043 98.7879 172.386C99.1232 171.729 96.607 169.949 96.4134 169.409C96.2198 168.869 96.179 167.228 96.4134 166.716" fill="#1F161E"/>
<path d="M82.8916 114.736H57.2194L63.3314 98.5399H89.0037L82.8916 114.736Z" fill="#969696"/>
<path d="M61.4995 114.125H35.8272V114.736H61.4995V114.125Z" fill="#969696"/>
<path d="M15.1574 106.658C14.664 108.501 12.2677 116.407 13.2437 117.77C14.2196 119.133 38.6624 116.045 45.2025 114.008C46.8681 113.463 48.1031 112.034 48.8419 111.849C49.7905 111.688 50.7651 111.884 51.5783 112.398C52.3914 112.913 52.9859 113.709 53.2474 114.635C50.6357 115.9 12.9274 135.152 0.708767 126.584C-1.60029 124.929 2.45079 104.756 2.63616 103.739C4.69987 103.987 15.1574 106.658 15.1574 106.658Z" fill="#F8CDBA"/>
<path d="M43.2969 114.499C44.0329 114.324 44.6763 114.153 45.2052 113.989C46.8709 113.444 48.1058 112.015 48.8446 111.83C49.7933 111.669 50.7678 111.865 51.581 112.379C52.3941 112.893 52.9886 113.69 53.2501 114.616" stroke="#1F161E" stroke-miterlimit="10" stroke-linecap="round"/>
</g>
<defs>
<clipPath id="clip0">
<rect width="250" height="210.732" fill="white"/>
</clipPath>
</defs>
</svg>
