<svg width="27" height="27" viewBox="0 0 27 27" fill="none" xmlns="http://www.w3.org/2000/svg">
<path d="M21.9375 4.21875H5.0625C4.59651 4.21875 4.21875 4.59651 4.21875 5.0625V21.9375C4.21875 22.4035 4.59651 22.7812 5.0625 22.7812H21.9375C22.4035 22.7812 22.7812 22.4035 22.7812 21.9375V5.0625C22.7812 4.59651 22.4035 4.21875 21.9375 4.21875Z" stroke="#161616" stroke-width="2" stroke-linecap="round" stroke-linejoin="round"/>
<path d="M18.5625 2.10938V4.21875" stroke="#161616" stroke-width="2" stroke-linecap="round" stroke-linejoin="round"/>
<path d="M8.4375 2.10938V4.21875" stroke="#161616" stroke-width="2" stroke-linecap="round" stroke-linejoin="round"/>
<path d="M4.21875 9.28125H22.7812" stroke="#161616" stroke-width="2" stroke-linecap="round" stroke-linejoin="round"/>
<path d="M9.28125 13.4995H12.2344L10.5469 15.6089C10.8243 15.6089 11.0975 15.6773 11.3422 15.8081C11.587 15.9389 11.7956 16.128 11.9498 16.3586C12.104 16.5893 12.199 16.8545 12.2262 17.1306C12.2535 17.4067 12.2122 17.6853 12.1061 17.9417C12 18.1981 11.8323 18.4243 11.6179 18.6004C11.4035 18.7765 11.149 18.8971 10.8768 18.9513C10.6047 19.0056 10.3234 18.9919 10.0579 18.9115C9.79232 18.8311 9.55068 18.6864 9.35436 18.4904" stroke="#161616" stroke-width="2" stroke-linecap="round" stroke-linejoin="round"/>
<path d="M15.6094 14.7651L17.2969 13.4995V18.9839" stroke="#161616" stroke-width="2" stroke-linecap="round" stroke-linejoin="round"/>
</svg>
