<svg width="23" height="19" viewBox="0 0 23 19" fill="none" xmlns="http://www.w3.org/2000/svg">
<path opacity="0.4" d="M13.2726 2.073V4.39217" stroke="#5CDB9E" stroke-width="2" stroke-linecap="round" stroke-linejoin="round"/>
<path opacity="0.4" d="M13.2726 15.0198V16.9594" stroke="#5CDB9E" stroke-width="2" stroke-linecap="round" stroke-linejoin="round"/>
<path opacity="0.4" d="M13.2726 11.7275V7.10742" stroke="#5CDB9E" stroke-width="2" stroke-linecap="round" stroke-linejoin="round"/>
<path fill-rule="evenodd" clip-rule="evenodd" d="M17.9229 17.1666C19.669 17.1666 21.0833 15.7699 21.0833 14.0454V11.5609C19.9279 11.5609 18.9974 10.642 18.9974 9.5009C18.9974 8.35984 19.9279 7.43988 21.0833 7.43988L21.0823 4.9544C21.0823 3.22997 19.667 1.83325 17.9219 1.83325H5.07813C3.33298 1.83325 1.91767 3.22997 1.91767 4.9544L1.91667 7.52082C3.07211 7.52082 4.00266 8.35984 4.00266 9.5009C4.00266 10.642 3.07211 11.5609 1.91667 11.5609V14.0454C1.91667 15.7699 3.33098 17.1666 5.07713 17.1666H17.9229Z" stroke="#5CDB9E" stroke-width="2" stroke-linecap="round" stroke-linejoin="round"/>
</svg>
