<svg width="18" height="18" viewBox="0 0 18 18" fill="none" xmlns="http://www.w3.org/2000/svg">
<path d="M7.48125 6.73125C7.84834 6.36413 8.09832 5.8964 8.19958 5.38721C8.30085 4.87801 8.24885 4.35023 8.05016 3.87059C7.85147 3.39095 7.51502 2.98099 7.08335 2.69257C6.65167 2.40414 6.14417 2.25019 5.625 2.25019C5.10584 2.25019 4.59833 2.40414 4.16666 2.69257C3.73498 2.98099 3.39853 3.39095 3.19984 3.87059C3.00116 4.35023 2.94916 4.87801 3.05042 5.38721C3.15169 5.8964 3.40167 6.36413 3.76875 6.73125L5.625 8.5875L7.48125 6.73125ZM5.625 10.7085L2.7075 7.7925C2.1308 7.21554 1.73813 6.48053 1.57912 5.68041C1.42011 4.88029 1.50192 4.05099 1.81418 3.29736C2.12645 2.54372 2.65517 1.8996 3.33348 1.44643C4.01179 0.993252 4.80924 0.751373 5.625 0.751373C6.44077 0.751373 7.23822 0.993252 7.91653 1.44643C8.59484 1.8996 9.12355 2.54372 9.43582 3.29736C9.74809 4.05099 9.82989 4.88029 9.67088 5.68041C9.51188 6.48053 9.1192 7.21554 8.5425 7.7925L5.625 10.71V10.7085ZM5.625 6C5.32663 6 5.04048 5.88148 4.82951 5.6705C4.61853 5.45952 4.5 5.17337 4.5 4.875C4.5 4.57664 4.61853 4.29049 4.82951 4.07951C5.04048 3.86853 5.32663 3.75 5.625 3.75C5.92337 3.75 6.20952 3.86853 6.4205 4.07951C6.63148 4.29049 6.75 4.57664 6.75 4.875C6.75 5.17337 6.63148 5.45952 6.4205 5.6705C6.20952 5.88148 5.92337 6 5.625 6ZM12.375 15.3375L14.2313 13.4813C14.5983 13.1141 14.8483 12.6464 14.9496 12.1372C15.0508 11.628 14.9988 11.1002 14.8002 10.6206C14.6015 10.1409 14.265 9.73099 13.8333 9.44257C13.4017 9.15414 12.8942 9.00019 12.375 9.00019C11.8558 9.00019 11.3483 9.15414 10.9167 9.44257C10.485 9.73099 10.1485 10.1409 9.94984 10.6206C9.75116 11.1002 9.69916 11.628 9.80042 12.1372C9.90169 12.6464 10.1517 13.1141 10.5188 13.4813L12.375 15.3375ZM15.2925 14.5425L12.375 17.4585L9.4575 14.5418C8.8808 13.9648 8.48813 13.2298 8.32912 12.4297C8.17011 11.6295 8.25192 10.8002 8.56418 10.0466C8.87645 9.29297 9.40517 8.64885 10.0835 8.19568C10.7618 7.7425 11.5592 7.50062 12.375 7.50062C13.1908 7.50062 13.9882 7.7425 14.6665 8.19568C15.3448 8.64885 15.8736 9.29297 16.1858 10.0466C16.4981 10.8002 16.5799 11.6295 16.4209 12.4297C16.2619 13.2298 15.8692 13.9648 15.2925 14.5418V14.5425ZM12.375 12.75C12.0766 12.75 11.7905 12.6315 11.5795 12.4205C11.3685 12.2095 11.25 11.9234 11.25 11.625C11.25 11.3266 11.3685 11.0405 11.5795 10.8295C11.7905 10.6185 12.0766 10.5 12.375 10.5C12.6734 10.5 12.9595 10.6185 13.1705 10.8295C13.3815 11.0405 13.5 11.3266 13.5 11.625C13.5 11.9234 13.3815 12.2095 13.1705 12.4205C12.9595 12.6315 12.6734 12.75 12.375 12.75Z" fill="#161616"/>
</svg>
