<svg width="29" height="11" viewBox="0 0 29 11" fill="none" xmlns="http://www.w3.org/2000/svg">
<path d="M7.392 3.28C7.21467 2.95333 6.958 2.706 6.622 2.538C6.29533 2.36067 5.908 2.272 5.46 2.272C4.68533 2.272 4.06467 2.52867 3.598 3.042C3.13133 3.546 2.898 4.22267 2.898 5.072C2.898 5.97733 3.14067 6.68667 3.626 7.2C4.12067 7.704 4.79733 7.956 5.656 7.956C6.244 7.956 6.73867 7.80667 7.14 7.508C7.55067 7.20933 7.84933 6.78 8.036 6.22H4.998V4.456H10.206V6.682C10.0287 7.27933 9.72533 7.83467 9.296 8.348C8.876 8.86133 8.33933 9.27667 7.686 9.594C7.03267 9.91133 6.29533 10.07 5.474 10.07C4.50333 10.07 3.63533 9.86 2.87 9.44C2.114 9.01067 1.52133 8.418 1.092 7.662C0.672 6.906 0.462 6.04267 0.462 5.072C0.462 4.10133 0.672 3.238 1.092 2.482C1.52133 1.71667 2.114 1.124 2.87 0.704C3.626 0.274666 4.48933 0.0599995 5.46 0.0599995C6.636 0.0599995 7.62533 0.344666 8.428 0.913999C9.24 1.48333 9.77667 2.272 10.038 3.28H7.392ZM15.0881 10.112C14.3227 10.112 13.6321 9.94867 13.0161 9.622C12.4094 9.29533 11.9287 8.82867 11.5741 8.222C11.2287 7.61533 11.0561 6.906 11.0561 6.094C11.0561 5.29133 11.2334 4.58667 11.5881 3.98C11.9427 3.364 12.4281 2.89267 13.0441 2.566C13.6601 2.23933 14.3507 2.076 15.1161 2.076C15.8814 2.076 16.5721 2.23933 17.1881 2.566C17.8041 2.89267 18.2894 3.364 18.6441 3.98C18.9987 4.58667 19.1761 5.29133 19.1761 6.094C19.1761 6.89667 18.9941 7.606 18.6301 8.222C18.2754 8.82867 17.7854 9.29533 17.1601 9.622C16.5441 9.94867 15.8534 10.112 15.0881 10.112ZM15.0881 8.04C15.5454 8.04 15.9327 7.872 16.2501 7.536C16.5767 7.2 16.7401 6.71933 16.7401 6.094C16.7401 5.46867 16.5814 4.988 16.2641 4.652C15.9561 4.316 15.5734 4.148 15.1161 4.148C14.6494 4.148 14.2621 4.316 13.9541 4.652C13.6461 4.97867 13.4921 5.45933 13.4921 6.094C13.4921 6.71933 13.6414 7.2 13.9401 7.536C14.2481 7.872 14.6307 8.04 15.0881 8.04ZM24.0021 10.112C23.2368 10.112 22.5461 9.94867 21.9301 9.622C21.3235 9.29533 20.8428 8.82867 20.4881 8.222C20.1428 7.61533 19.9701 6.906 19.9701 6.094C19.9701 5.29133 20.1475 4.58667 20.5021 3.98C20.8568 3.364 21.3421 2.89267 21.9581 2.566C22.5741 2.23933 23.2648 2.076 24.0301 2.076C24.7955 2.076 25.4861 2.23933 26.1021 2.566C26.7181 2.89267 27.2035 3.364 27.5581 3.98C27.9128 4.58667 28.0901 5.29133 28.0901 6.094C28.0901 6.89667 27.9081 7.606 27.5441 8.222C27.1895 8.82867 26.6995 9.29533 26.0741 9.622C25.4581 9.94867 24.7675 10.112 24.0021 10.112ZM24.0021 8.04C24.4595 8.04 24.8468 7.872 25.1641 7.536C25.4908 7.2 25.6541 6.71933 25.6541 6.094C25.6541 5.46867 25.4955 4.988 25.1781 4.652C24.8701 4.316 24.4875 4.148 24.0301 4.148C23.5635 4.148 23.1761 4.316 22.8681 4.652C22.5601 4.97867 22.4061 5.45933 22.4061 6.094C22.4061 6.71933 22.5555 7.2 22.8541 7.536C23.1621 7.872 23.5448 8.04 24.0021 8.04Z" fill="#5CDB9E"/>
</svg>
