<svg width="27" height="27" viewBox="0 0 27 27" fill="none" xmlns="http://www.w3.org/2000/svg">
<path d="M13.5 2.25C19.7134 2.25 24.75 7.28663 24.75 13.5C24.75 19.7134 19.7134 24.75 13.5 24.75C7.28663 24.75 2.25 19.7134 2.25 13.5H4.5C4.5 18.4703 8.52975 22.5 13.5 22.5C18.4703 22.5 22.5 18.4703 22.5 13.5C22.5 8.52975 18.4703 4.5 13.5 4.5C10.4062 4.5 7.677 6.06038 6.05813 8.4375H9V10.6875H2.25V3.9375H4.5V6.75C6.552 4.01625 9.82013 2.25 13.5 2.25ZM14.625 7.875V13.0331L18.2734 16.6815L16.6815 18.2734L12.375 13.9646V7.875H14.625Z" fill="#5CDB9E"/>
</svg>
