<svg width="103" height="67" viewBox="0 0 103 67" fill="none" xmlns="http://www.w3.org/2000/svg">
<path opacity="0.5" d="M10 33.5C9.11589 33.5 8.2766 33.3243 7.51228 33.0074L6.36312 35.7785C7.48532 36.2439 8.71464 36.5 10 36.5V33.5ZM3.99263 29.4877C3.67568 28.7234 3.5 27.8841 3.5 27H0.5C0.5 28.2854 0.756096 29.5147 1.22145 30.6369L3.99263 29.4877ZM3.5 27V22.75H0.5V27H3.5ZM3.5 14.25V10H0.5V14.25H3.5ZM3.5 10C3.5 9.11589 3.67568 8.2766 3.99263 7.51228L1.22146 6.36312C0.756096 7.48532 0.5 8.71464 0.5 10H3.5ZM7.51228 3.99263C8.2766 3.67568 9.11589 3.5 10 3.5V0.5C8.71464 0.5 7.48532 0.756096 6.36312 1.22146L7.51228 3.99263ZM10 3.5H13V0.5H10V3.5ZM19 3.5H25V0.5H19V3.5ZM31 3.5H37V0.5H31V3.5ZM43 3.5H49V0.5H43V3.5ZM55 3.5H58V0.5H55V3.5ZM58 3.5C58.8841 3.5 59.7234 3.67568 60.4877 3.99263L61.6369 1.22146C60.5147 0.756096 59.2854 0.5 58 0.5V3.5ZM64.0074 7.51228C64.3243 8.2766 64.5 9.11589 64.5 10H67.5C67.5 8.71465 67.2439 7.48532 66.7785 6.36312L64.0074 7.51228ZM64.5 10V14.25H67.5V10H64.5ZM64.5 22.75V27H67.5V22.75H64.5ZM64.5 27C64.5 27.8841 64.3243 28.7234 64.0074 29.4877L66.7785 30.6369C67.2439 29.5147 67.5 28.2854 67.5 27H64.5ZM60.4877 33.0074C59.7234 33.3243 58.8841 33.5 58 33.5V36.5C59.2854 36.5 60.5147 36.2439 61.6369 35.7785L60.4877 33.0074ZM58 33.5H55V36.5H58V33.5ZM49 33.5H43V36.5H49V33.5ZM37 33.5H31V36.5H37V33.5ZM25 33.5H19V36.5H25V33.5ZM13 33.5H10V36.5H13V33.5Z" fill="#5CDB9E"/>
<path d="M65.0227 62.6667H87.556C97.4642 62.6667 98.5215 52.1649 98.6883 51.8724C100.2 45.7193 100.92 39.3988 100.833 33.0635C100.831 30.4474 99.8914 27.9186 98.1856 25.9351C96.4798 23.9515 94.1203 22.6441 91.534 22.2497L71.9603 19.433C70.6978 19.2563 69.4121 19.3531 68.1902 19.7168C66.9683 20.0804 65.8389 20.7025 64.8785 21.5409C63.9181 22.3792 63.1492 23.4142 62.6238 24.5758C62.0984 25.7373 61.8288 26.9982 61.8333 28.273V32.537C59.3916 32.9829 57.1848 34.2743 55.6 36.1848C54.0153 38.0952 53.1538 40.5026 53.1667 42.9847V47.3657C53.1704 50.5756 53.9117 53.7417 55.3333 56.6195C56.2182 58.4352 57.5961 59.9652 59.3096 61.0346C61.0231 62.1039 63.0029 62.6695 65.0227 62.6667ZM57.5 42.9847C57.499 41.6626 57.9182 40.3744 58.6971 39.3062C59.476 38.2379 60.5743 37.4449 61.8333 37.0415V45.3334C61.8333 45.908 62.0616 46.4591 62.4679 46.8654C62.8743 47.2718 63.4254 47.5 64 47.5C64.5746 47.5 65.1257 47.2718 65.5321 46.8654C65.9384 46.4591 66.1667 45.908 66.1667 45.3334V28.273C66.1688 27.0518 66.6486 25.8799 67.5035 25.0079C67.9241 24.5834 68.4246 24.2463 68.976 24.0161C69.5275 23.7859 70.1191 23.6672 70.7167 23.6667C71.2063 23.6667 76.8895 24.5225 90.9187 26.5375C92.4748 26.7801 93.8928 27.5713 94.9164 28.7682C95.94 29.9651 96.5017 31.4886 96.5 33.0635C96.6497 39.0498 95.9746 45.0281 94.4937 50.8302C94.1795 51.426 93.8913 58.3312 87.5603 58.3312H65.0227C63.8108 58.3314 62.6234 57.9905 61.5961 57.3476C60.5689 56.7047 59.7433 55.7856 59.2138 54.6955C58.089 52.4157 57.5027 49.908 57.5 47.3657V42.9847Z" fill="#5CDB9E"/>
</svg>
