<svg width="27" height="27" viewBox="0 0 27 27" fill="none" xmlns="http://www.w3.org/2000/svg">
<path d="M22.7794 22.7814V12.1859C22.7794 12.0684 22.7548 11.9521 22.7073 11.8446C22.6597 11.7371 22.5902 11.6407 22.5032 11.5616L14.0651 3.89034C13.9098 3.74913 13.7074 3.67089 13.4975 3.6709C13.2876 3.67091 13.0852 3.74916 12.9299 3.89037L4.49302 11.5616C4.40604 11.6407 4.33655 11.7371 4.289 11.8446C4.24145 11.9521 4.21689 12.0683 4.21689 12.1859V22.7814" stroke="#161616" stroke-width="2" stroke-linecap="round" stroke-linejoin="round"/>
<path d="M1.68564 22.7812H25.3106" stroke="#161616" stroke-width="2" stroke-linecap="round" stroke-linejoin="round"/>
<path d="M16.0288 22.7803V16.874C16.0288 16.6502 15.9399 16.4356 15.7816 16.2774C15.6234 16.1192 15.4088 16.0303 15.185 16.0303H11.81C11.5863 16.0303 11.3716 16.1192 11.2134 16.2774C11.0552 16.4356 10.9663 16.6502 10.9663 16.874V22.7803" stroke="#161616" stroke-width="2" stroke-linecap="round" stroke-linejoin="round"/>
</svg>
