<svg width="32" height="32" viewBox="0 0 32 32" fill="none" xmlns="http://www.w3.org/2000/svg">
<path d="M16 29.3334C8.63602 29.3334 2.66669 23.364 2.66669 16C2.66669 8.63602 8.63602 2.66669 16 2.66669C23.364 2.66669 29.3334 8.63602 29.3334 16C29.3334 23.364 23.364 29.3334 16 29.3334ZM16 26.6667C18.829 26.6667 21.5421 25.5429 23.5425 23.5425C25.5429 21.5421 26.6667 18.829 26.6667 16C26.6667 13.171 25.5429 10.4579 23.5425 8.45755C21.5421 6.45716 18.829 5.33335 16 5.33335C13.171 5.33335 10.4579 6.45716 8.45755 8.45755C6.45716 10.4579 5.33335 13.171 5.33335 16C5.33335 18.829 6.45716 21.5421 8.45755 23.5425C10.4579 25.5429 13.171 26.6667 16 26.6667ZM11.364 9.47869L22.5214 20.636C22.002 21.3649 21.3649 22.002 20.636 22.5214L9.47869 11.364C9.99813 10.6357 10.6353 9.99895 11.364 9.48002V9.47869Z" fill="#FA627D"/>
</svg>
