<svg width="18" height="22" viewBox="0 0 18 22" fill="none" xmlns="http://www.w3.org/2000/svg">
<path d="M18 5C17.999 4.73452 17.8933 4.48013 17.706 4.292L13.706 0.292005C13.6135 0.199578 13.5038 0.126193 13.383 0.0760045C13.2617 0.0254446 13.1315 -0.000393179 13 4.5222e-06H1C0.734784 4.5222e-06 0.48043 0.105361 0.292893 0.292898C0.105357 0.480434 0 0.734788 0 1V21C0 21.2652 0.105357 21.5196 0.292893 21.7071C0.48043 21.8946 0.734784 22 1 22H17C17.2652 22 17.5196 21.8946 17.7071 21.7071C17.8946 21.5196 18 21.2652 18 21V5ZM16 20H2V2H12V5C12 5.26522 12.1054 5.51957 12.2929 5.70711C12.4804 5.89465 12.7348 6 13 6H16V20ZM13 8C13.2652 8 13.5196 8.10536 13.7071 8.2929C13.8946 8.48043 14 8.73479 14 9C14 9.26522 13.8946 9.51958 13.7071 9.70711C13.5196 9.89465 13.2652 10 13 10H5C4.73478 10 4.48043 9.89465 4.29289 9.70711C4.10536 9.51958 4 9.26522 4 9C4 8.73479 4.10536 8.48043 4.29289 8.2929C4.48043 8.10536 4.73478 8 5 8H13ZM4 5C4 4.73479 4.10536 4.48043 4.29289 4.2929C4.48043 4.10536 4.73478 4 5 4H9C9.26522 4 9.51957 4.10536 9.70711 4.2929C9.89464 4.48043 10 4.73479 10 5C10 5.26522 9.89464 5.51957 9.70711 5.70711C9.51957 5.89465 9.26522 6 9 6H5C4.73478 6 4.48043 5.89465 4.29289 5.70711C4.10536 5.51957 4 5.26522 4 5ZM14 13C14 13.2652 13.8946 13.5196 13.7071 13.7071C13.5196 13.8946 13.2652 14 13 14H5C4.73478 14 4.48043 13.8946 4.29289 13.7071C4.10536 13.5196 4 13.2652 4 13C4 12.7348 4.10536 12.4804 4.29289 12.2929C4.48043 12.1054 4.73478 12 5 12H13C13.2652 12 13.5196 12.1054 13.7071 12.2929C13.8946 12.4804 14 12.7348 14 13ZM14 17C14 17.2652 13.8946 17.5196 13.7071 17.7071C13.5196 17.8946 13.2652 18 13 18H5C4.73478 18 4.48043 17.8946 4.29289 17.7071C4.10536 17.5196 4 17.2652 4 17C4 16.7348 4.10536 16.4804 4.29289 16.2929C4.48043 16.1054 4.73478 16 5 16H13C13.2652 16 13.5196 16.1054 13.7071 16.2929C13.8946 16.4804 14 16.7348 14 17Z" fill="#1AB260"/>
</svg>
