<svg width="27" height="27" viewBox="0 0 27 27" fill="none" xmlns="http://www.w3.org/2000/svg">
<path d="M4.5 16.875H6.75V22.5H20.25V4.5H6.75V10.125H4.5V3.375C4.5 3.07663 4.61853 2.79048 4.8295 2.5795C5.04048 2.36853 5.32663 2.25 5.625 2.25H21.375C21.6734 2.25 21.9595 2.36853 22.1705 2.5795C22.3815 2.79048 22.5 3.07663 22.5 3.375V23.625C22.5 23.9234 22.3815 24.2095 22.1705 24.4205C21.9595 24.6315 21.6734 24.75 21.375 24.75H5.625C5.32663 24.75 5.04048 24.6315 4.8295 24.4205C4.61853 24.2095 4.5 23.9234 4.5 23.625V16.875ZM11.25 12.375V9L16.875 13.5L11.25 18V14.625H2.25V12.375H11.25Z" fill="#5CDB9E"/>
</svg>
