<svg width="21" height="21" viewBox="0 0 21 21" fill="none" xmlns="http://www.w3.org/2000/svg">
<path d="M2.625 2.625H18.375C18.6071 2.625 18.8296 2.71719 18.9937 2.88128C19.1578 3.04538 19.25 3.26794 19.25 3.5V17.5C19.25 17.7321 19.1578 17.9546 18.9937 18.1187C18.8296 18.2828 18.6071 18.375 18.375 18.375H2.625C2.39294 18.375 2.17038 18.2828 2.00628 18.1187C1.84219 17.9546 1.75 17.7321 1.75 17.5V3.5C1.75 3.26794 1.84219 3.04538 2.00628 2.88128C2.17038 2.71719 2.39294 2.625 2.625 2.625ZM3.5 4.375V16.625H17.5V4.375H3.5ZM7.4375 12.25H12.25C12.366 12.25 12.4773 12.2039 12.5594 12.1219C12.6414 12.0398 12.6875 11.9285 12.6875 11.8125C12.6875 11.6965 12.6414 11.5852 12.5594 11.5031C12.4773 11.4211 12.366 11.375 12.25 11.375H8.75C8.16984 11.375 7.61344 11.1445 7.2032 10.7343C6.79297 10.3241 6.5625 9.76766 6.5625 9.1875C6.5625 8.60734 6.79297 8.05094 7.2032 7.6407C7.61344 7.23047 8.16984 7 8.75 7H9.625V5.25H11.375V7H13.5625V8.75H8.75C8.63397 8.75 8.52269 8.79609 8.44064 8.87814C8.35859 8.96019 8.3125 9.07147 8.3125 9.1875C8.3125 9.30353 8.35859 9.41481 8.44064 9.49686C8.52269 9.57891 8.63397 9.625 8.75 9.625H12.25C12.8302 9.625 13.3866 9.85547 13.7968 10.2657C14.207 10.6759 14.4375 11.2323 14.4375 11.8125C14.4375 12.3927 14.207 12.9491 13.7968 13.3593C13.3866 13.7695 12.8302 14 12.25 14H11.375V15.75H9.625V14H7.4375V12.25Z" fill="#1AB260"/>
</svg>
