<svg width="32" height="32" viewBox="0 0 32 32" fill="none" xmlns="http://www.w3.org/2000/svg">
<path d="M5.33329 24H12.6666V25.6666C12.6666 26.6391 12.2803 27.5717 11.5927 28.2594C10.9051 28.947 9.97242 29.3333 8.99996 29.3333C8.0275 29.3333 7.09487 28.947 6.40723 28.2594C5.7196 27.5717 5.33329 26.6391 5.33329 25.6666V24ZM10.744 18.6667L10.804 18.4907C11.8266 15.6827 12 15.16 12 14.6667C12 13.6667 11.7293 12.476 11.296 11.636C10.9733 11.0093 10.7466 10.8266 10.6666 10.8266C8.95996 10.8266 7.33329 12.6453 7.33329 14.6667C7.33329 15.9453 7.43329 17.0307 7.63596 18.344L7.68663 18.6667H10.744ZM10.6666 8.15998C13.3333 8.15998 14.6666 12 14.6666 14.6667C14.6666 16 14 17.3333 13.3333 19.3333L12.6666 21.3333H5.33329C5.33329 20 4.66663 18 4.66663 14.6667C4.66663 11.3333 7.33063 8.15998 10.6666 8.15998ZM26.7386 18.7973L26.4493 20.4387C26.2804 21.3964 25.738 22.2479 24.9414 22.8058C24.1447 23.3636 23.1591 23.5822 22.2013 23.4133C21.2435 23.2445 20.392 22.702 19.8342 21.9054C19.2763 21.1087 19.0578 20.1231 19.2266 19.1653L19.5173 17.5253L26.7386 18.7973ZM25.3386 13.136C25.5586 12.4693 25.74 11.9426 25.7426 11.936C26.012 11.0586 26.224 10.1986 26.3893 9.25865C26.74 7.26932 25.4533 5.19598 23.7733 4.89865C23.6946 4.88532 23.44 5.02532 23.0133 5.58532C22.44 6.33865 21.968 7.46532 21.7933 8.44798C21.716 8.88798 21.728 8.98798 22.1533 11.4653C22.2133 11.8067 22.2626 12.1133 22.308 12.4213L22.3346 12.6053L25.34 13.136H25.3386ZM24.2373 2.27332C27.5226 2.85198 29.5946 6.43865 29.016 9.72132C28.4373 13.0053 27.4333 14.8587 27.2026 16.172L19.98 14.8987L19.6706 12.8133C19.3613 10.728 18.9373 9.29865 19.168 7.98665C19.6306 5.35998 21.6106 1.81065 24.2373 2.27332Z" fill="white"/>
</svg>
