<svg width="42" height="42" viewBox="0 0 42 42" fill="none" xmlns="http://www.w3.org/2000/svg">
<g id="Iconly/Two-tone/Category">
<g id="Category">
<path id="Stroke 1" fill-rule="evenodd" clip-rule="evenodd" d="M5.25 11.375C5.25 6.78088 5.29919 5.25 11.375 5.25C17.4508 5.25 17.5 6.78088 17.5 11.375C17.5 15.9691 17.5194 17.5 11.375 17.5C5.23062 17.5 5.25 15.9691 5.25 11.375Z" stroke="#1AB260" stroke-width="4" stroke-linecap="round" stroke-linejoin="round"/>
<path id="Stroke 3" opacity="0.4" fill-rule="evenodd" clip-rule="evenodd" d="M24.5 11.375C24.5 6.78088 24.5492 5.25 30.625 5.25C36.7008 5.25 36.75 6.78088 36.75 11.375C36.75 15.9691 36.7694 17.5 30.625 17.5C24.4806 17.5 24.5 15.9691 24.5 11.375Z" stroke="#1AB260" stroke-width="4" stroke-linecap="round" stroke-linejoin="round"/>
<path id="Stroke 5" fill-rule="evenodd" clip-rule="evenodd" d="M5.25 30.625C5.25 26.0309 5.29919 24.5 11.375 24.5C17.4508 24.5 17.5 26.0309 17.5 30.625C17.5 35.2191 17.5194 36.75 11.375 36.75C5.23062 36.75 5.25 35.2191 5.25 30.625Z" stroke="#1AB260" stroke-width="4" stroke-linecap="round" stroke-linejoin="round"/>
<path id="Stroke 7" fill-rule="evenodd" clip-rule="evenodd" d="M24.5 30.625C24.5 26.0309 24.5492 24.5 30.625 24.5C36.7008 24.5 36.75 26.0309 36.75 30.625C36.75 35.2191 36.7694 36.75 30.625 36.75C24.4806 36.75 24.5 35.2191 24.5 30.625Z" stroke="#1AB260" stroke-width="4" stroke-linecap="round" stroke-linejoin="round"/>
</g>
</g>
</svg>
