<svg width="32" height="32" viewBox="0 0 32 32" fill="none" xmlns="http://www.w3.org/2000/svg">
<path d="M16 30.6667C18.6522 30.6667 21.1957 29.6131 23.0711 27.7377C24.9464 25.8624 26 23.3188 26 20.6667C26 19.512 25.6933 18.404 25.3333 17.3733C23.1107 19.5693 21.4227 20.6667 20.2667 20.6667C25.5933 11.3333 22.6667 7.33333 14.6667 2C15.3333 8.66667 10.9387 11.6987 9.14934 13.3827C7.68977 14.7556 6.67632 16.5353 6.24038 18.4911C5.80444 20.4469 5.96612 22.4886 6.70446 24.3514C7.44281 26.2142 8.72375 27.8122 10.3812 28.9383C12.0387 30.0643 13.9962 30.6665 16 30.6667ZM16.9467 6.98C21.268 10.6467 21.2893 13.496 17.9507 19.3453C16.936 21.1227 18.22 23.3333 20.2667 23.3333C21.184 23.3333 22.112 23.0667 23.092 22.54C22.8015 23.6373 22.2603 24.6522 21.5109 25.5048C20.7615 26.3573 19.8244 27.0243 18.7734 27.4532C17.7225 27.882 16.5863 28.061 15.4543 27.9761C14.3224 27.8912 13.2257 27.5447 12.2504 26.9639C11.2752 26.383 10.4481 25.5837 9.83425 24.6289C9.22043 23.6741 8.83663 22.5898 8.71309 21.4615C8.58955 20.3331 8.72964 19.1915 9.12232 18.1264C9.51499 17.0614 10.1495 16.1021 10.976 15.324C11.144 15.1667 11.996 14.4107 12.0333 14.3773C12.5987 13.8707 13.064 13.4213 13.524 12.9293C15.164 11.172 16.3427 9.22267 16.9453 6.98H16.9467Z" fill="white"/>
</svg>
