<svg width="27" height="27" viewBox="0 0 27 27" fill="none" xmlns="http://www.w3.org/2000/svg">
<path d="M13.5 23.625C19.0919 23.625 23.625 19.0919 23.625 13.5C23.625 7.90812 19.0919 3.375 13.5 3.375C7.90812 3.375 3.375 7.90812 3.375 13.5C3.375 19.0919 7.90812 23.625 13.5 23.625Z" stroke="#161616" stroke-width="2" stroke-linecap="round" stroke-linejoin="round"/>
<path d="M13.5 16.875C15.83 16.875 17.7188 14.9862 17.7188 12.6562C17.7188 10.3263 15.83 8.4375 13.5 8.4375C11.17 8.4375 9.28125 10.3263 9.28125 12.6562C9.28125 14.9862 11.17 16.875 13.5 16.875Z" stroke="#161616" stroke-width="2" stroke-linecap="round" stroke-linejoin="round"/>
<path d="M6.72882 21.0277C7.36439 19.7782 8.33334 18.7288 9.52841 17.9959C10.7235 17.2629 12.0981 16.875 13.5 16.875C14.9019 16.875 16.2765 17.2629 17.4716 17.9959C18.6667 18.7288 19.6356 19.7781 20.2712 21.0277" stroke="#161616" stroke-width="2" stroke-linecap="round" stroke-linejoin="round"/>
</svg>
