<svg width="27" height="27" viewBox="0 0 27 27" fill="none" xmlns="http://www.w3.org/2000/svg">
<path d="M14.4743 3.375L25.191 21.9375C25.2897 22.1085 25.3417 22.3025 25.3417 22.5C25.3417 22.6975 25.2897 22.8915 25.191 23.0625C25.0923 23.2335 24.9503 23.3755 24.7792 23.4743C24.6082 23.573 24.4142 23.625 24.2167 23.625H2.78325C2.58577 23.625 2.39178 23.573 2.22076 23.4743C2.04974 23.3755 1.90773 23.2335 1.80899 23.0625C1.71026 22.8915 1.65828 22.6975 1.65828 22.5C1.65828 22.3025 1.71026 22.1085 1.809 21.9375L12.5258 3.375C12.6245 3.20399 12.7665 3.06198 12.9375 2.96325C13.1085 2.86452 13.3025 2.81255 13.5 2.81255C13.6975 2.81255 13.8915 2.86452 14.0625 2.96325C14.2335 3.06198 14.3755 3.20399 14.4743 3.375ZM4.73175 21.375H22.2683L13.5 6.1875L4.73175 21.375ZM12.375 18H14.625V20.25H12.375V18ZM12.375 10.125H14.625V15.75H12.375V10.125Z" fill="#5CDB9E"/>
</svg>
