<svg width="27" height="27" viewBox="0 0 27 27" fill="none" xmlns="http://www.w3.org/2000/svg">
<path d="M22.1962 18.7459C22.753 18.0567 23.0585 17.1985 23.0625 16.3125C23.0625 15.2682 22.6477 14.2667 21.9092 13.5283C21.1708 12.7898 20.1693 12.375 19.125 12.375C18.0807 12.375 17.0792 12.7898 16.3408 13.5283C15.6023 14.2667 15.1875 15.2682 15.1875 16.3125C15.1915 17.1985 15.497 18.0567 16.0538 18.7459C15.0218 19.2756 14.1427 20.0606 13.5 21.0263C12.8573 20.0606 11.9782 19.2756 10.9462 18.7459C11.503 18.0567 11.8085 17.1985 11.8125 16.3125C11.8125 15.2682 11.3977 14.2667 10.6592 13.5283C9.92081 12.7898 8.91929 12.375 7.875 12.375C6.83071 12.375 5.82919 12.7898 5.09077 13.5283C4.35234 14.2667 3.9375 15.2682 3.9375 16.3125C3.9415 17.1985 4.24701 18.0567 4.80375 18.7459C3.69739 19.3112 2.76851 20.1709 2.11943 21.2302C1.47034 22.2896 1.12623 23.5076 1.125 24.75C1.125 25.0484 1.24353 25.3345 1.4545 25.5455C1.66548 25.7565 1.95163 25.875 2.25 25.875H24.75C25.0484 25.875 25.3345 25.7565 25.5455 25.5455C25.7565 25.3345 25.875 25.0484 25.875 24.75C25.8738 23.5076 25.5297 22.2896 24.8806 21.2302C24.2315 20.1709 23.3026 19.3112 22.1962 18.7459ZM7.875 14.625C8.20876 14.625 8.53502 14.724 8.81252 14.9094C9.09003 15.0948 9.30632 15.3584 9.43405 15.6667C9.56177 15.9751 9.59519 16.3144 9.53008 16.6417C9.46496 16.9691 9.30424 17.2697 9.06824 17.5057C8.83224 17.7417 8.53156 17.9025 8.20422 17.9676C7.87687 18.0327 7.53757 17.9993 7.22922 17.8715C6.92087 17.7438 6.65732 17.5275 6.4719 17.25C6.28647 16.9725 6.1875 16.6463 6.1875 16.3125C6.1875 15.8649 6.36529 15.4357 6.68176 15.1193C6.99822 14.8028 7.42745 14.625 7.875 14.625ZM3.51675 23.625C3.76537 22.658 4.32851 21.8012 5.11751 21.1894C5.90652 20.5776 6.87658 20.2456 7.875 20.2456C8.87342 20.2456 9.84348 20.5776 10.6325 21.1894C11.4215 21.8012 11.9846 22.658 12.2332 23.625H3.51675ZM19.125 14.625C19.4588 14.625 19.785 14.724 20.0625 14.9094C20.34 15.0948 20.5563 15.3584 20.684 15.6667C20.8118 15.9751 20.8452 16.3144 20.7801 16.6417C20.715 16.9691 20.5542 17.2697 20.3182 17.5057C20.0822 17.7417 19.7816 17.9025 19.4542 17.9676C19.1269 18.0327 18.7876 17.9993 18.4792 17.8715C18.1709 17.7438 17.9073 17.5275 17.7219 17.25C17.5365 16.9725 17.4375 16.6463 17.4375 16.3125C17.4375 15.8649 17.6153 15.4357 17.9318 15.1193C18.2482 14.8028 18.6774 14.625 19.125 14.625ZM14.7668 23.625C15.0154 22.658 15.5785 21.8012 16.3675 21.1894C17.1565 20.5776 18.1266 20.2456 19.125 20.2456C20.1234 20.2456 21.0935 20.5776 21.8825 21.1894C22.6715 21.8012 23.2346 22.658 23.4832 23.625H14.7668ZM6.75 2.25V9C6.75 9.29837 6.86853 9.58452 7.0795 9.7955C7.29048 10.0065 7.57663 10.125 7.875 10.125H11.0981L12.636 11.9711C12.7416 12.0977 12.8737 12.1996 13.023 12.2695C13.1723 12.3394 13.3351 12.3756 13.5 12.3756C13.6649 12.3756 13.8277 12.3394 13.977 12.2695C14.1263 12.1996 14.2584 12.0977 14.364 11.9711L15.9019 10.125H19.125C19.4234 10.125 19.7095 10.0065 19.9205 9.7955C20.1315 9.58452 20.25 9.29837 20.25 9V2.25C20.25 1.95163 20.1315 1.66548 19.9205 1.4545C19.7095 1.24353 19.4234 1.125 19.125 1.125H7.875C7.57663 1.125 7.29048 1.24353 7.0795 1.4545C6.86853 1.66548 6.75 1.95163 6.75 2.25ZM9 3.375H18V7.875H15.3754C15.2104 7.87476 15.0473 7.91081 14.8978 7.98061C14.7483 8.05041 14.616 8.15223 14.5103 8.27888L13.5 9.49275L12.4875 8.27888C12.382 8.15253 12.25 8.05087 12.1009 7.98109C11.9518 7.9113 11.7892 7.87509 11.6246 7.875H9V3.375Z" fill="#5CDB9E"/>
</svg>
