<svg width="26" height="26" viewBox="0 0 26 26" fill="none" xmlns="http://www.w3.org/2000/svg">
<path d="M16.7916 15.1667H15.9358L15.6324 14.8742C16.9324 13.3575 17.6041 11.2883 17.2358 9.08917C16.7266 6.07751 14.2133 3.67251 11.1799 3.30417C6.59745 2.74084 2.74078 6.59751 3.30411 11.18C3.67245 14.2133 6.07745 16.7267 9.08911 17.2358C11.2883 17.6042 13.3574 16.9325 14.8741 15.6325L15.1666 15.9358V16.7917L19.7708 21.3958C20.2149 21.84 20.9408 21.84 21.3849 21.3958C21.8291 20.9517 21.8291 20.2258 21.3849 19.7817L16.7916 15.1667ZM10.2916 15.1667C7.59411 15.1667 5.41661 12.9892 5.41661 10.2917C5.41661 7.59417 7.59411 5.41667 10.2916 5.41667C12.9891 5.41667 15.1666 7.59417 15.1666 10.2917C15.1666 12.9892 12.9891 15.1667 10.2916 15.1667Z" fill="#1AB260"/>
</svg>
