<svg width="27" height="27" viewBox="0 0 27 27" fill="none" xmlns="http://www.w3.org/2000/svg">
<path d="M2.48963 15.8176C2.16609 14.2895 2.16609 12.7107 2.48963 11.1826C3.73838 11.3288 4.82963 10.916 5.18513 10.0565C5.54176 9.19585 5.06363 8.13272 4.07588 7.3531C4.92755 6.04397 6.04387 4.92764 7.35301 4.07597C8.13151 5.0626 9.19576 5.54185 10.0564 5.18522C10.917 4.8286 11.3299 3.73847 11.1825 2.48972C12.7106 2.16619 14.2894 2.16619 15.8175 2.48972C15.6713 3.73847 16.0841 4.82972 16.9436 5.18522C17.8043 5.54185 18.8674 5.06372 19.647 4.07597C20.9561 4.92764 22.0725 6.04397 22.9241 7.3531C21.9375 8.1316 21.4583 9.19585 21.8149 10.0565C22.1715 10.9171 23.2616 11.33 24.5104 11.1826C24.8339 12.7107 24.8339 14.2895 24.5104 15.8176C23.2616 15.6713 22.1704 16.0842 21.8149 16.9437C21.4583 17.8043 21.9364 18.8675 22.9241 19.6471C22.0725 20.9562 20.9561 22.0726 19.647 22.9242C18.8685 21.9376 17.8043 21.4584 16.9436 21.815C16.083 22.1716 15.6701 23.2617 15.8175 24.5105C14.2894 24.834 12.7106 24.834 11.1825 24.5105C11.3288 23.2617 10.9159 22.1705 10.0564 21.815C9.19576 21.4584 8.13263 21.9365 7.35301 22.9242C6.04387 22.0726 4.92755 20.9562 4.07588 19.6471C5.06251 18.8686 5.54176 17.8043 5.18513 16.9437C4.82851 16.0831 3.73838 15.6702 2.48963 15.8176V15.8176ZM4.50001 13.7363C5.73751 14.0795 6.75788 14.8636 7.26413 16.0831C7.76926 17.3037 7.60163 18.5806 6.96938 19.6966C7.07738 19.8113 7.18876 19.9227 7.30351 20.0307C8.42063 19.3985 9.69638 19.232 10.917 19.736C12.1365 20.2422 12.9206 21.2626 13.2638 22.5001C13.4213 22.5046 13.5788 22.5046 13.7363 22.5001C14.0794 21.2626 14.8635 20.2422 16.083 19.736C17.3036 19.2308 18.5805 19.3985 19.6965 20.0307C19.8113 19.9227 19.9226 19.8113 20.0306 19.6966C19.3984 18.5795 19.2319 17.3037 19.7359 16.0831C20.2421 14.8636 21.2625 14.0795 22.5 13.7363C22.5045 13.5788 22.5045 13.4213 22.5 13.2638C21.2625 12.9207 20.2421 12.1366 19.7359 10.9171C19.2308 9.69647 19.3984 8.4196 20.0306 7.3036C19.9222 7.1893 19.8108 7.07788 19.6965 6.96947C18.5794 7.60172 17.3036 7.76822 16.083 7.26422C14.8635 6.75797 14.0794 5.7376 13.7363 4.5001C13.5788 4.49593 13.4212 4.49593 13.2638 4.5001C12.9206 5.7376 12.1365 6.75797 10.917 7.26422C9.69638 7.76935 8.41951 7.60172 7.30351 6.96947C7.18876 7.07747 7.07738 7.18885 6.96938 7.3036C7.60163 8.42072 7.76813 9.69647 7.26413 10.9171C6.75788 12.1366 5.73751 12.9207 4.50001 13.2638C4.49551 13.4213 4.49551 13.5788 4.50001 13.7363V13.7363ZM13.5 16.8751C12.6049 16.8751 11.7465 16.5195 11.1135 15.8866C10.4806 15.2536 10.125 14.3952 10.125 13.5001C10.125 12.605 10.4806 11.7465 11.1135 11.1136C11.7465 10.4807 12.6049 10.1251 13.5 10.1251C14.3951 10.1251 15.2536 10.4807 15.8865 11.1136C16.5194 11.7465 16.875 12.605 16.875 13.5001C16.875 14.3952 16.5194 15.2536 15.8865 15.8866C15.2536 16.5195 14.3951 16.8751 13.5 16.8751ZM13.5 14.6251C13.7984 14.6251 14.0845 14.5066 14.2955 14.2956C14.5065 14.0846 14.625 13.7985 14.625 13.5001C14.625 13.2017 14.5065 12.9156 14.2955 12.7046C14.0845 12.4936 13.7984 12.3751 13.5 12.3751C13.2016 12.3751 12.9155 12.4936 12.7045 12.7046C12.4935 12.9156 12.375 13.2017 12.375 13.5001C12.375 13.7985 12.4935 14.0846 12.7045 14.2956C12.9155 14.5066 13.2016 14.6251 13.5 14.6251V14.6251Z" fill="#5CDB9E"/>
</svg>
