<svg width="27" height="27" viewBox="0 0 27 27" fill="none" xmlns="http://www.w3.org/2000/svg">
<path d="M10.125 3.375V5.625H4.5V21.375H22.5V11.25H24.75V22.5C24.75 22.7984 24.6315 23.0845 24.4205 23.2955C24.2095 23.5065 23.9234 23.625 23.625 23.625H3.375C3.07663 23.625 2.79048 23.5065 2.5795 23.2955C2.36853 23.0845 2.25 22.7984 2.25 22.5V4.5C2.25 4.20163 2.36853 3.91548 2.5795 3.7045C2.79048 3.49353 3.07663 3.375 3.375 3.375H10.125ZM21.3188 5.625L18 2.30625L19.5907 0.7155L25.5982 6.723C25.6925 6.8174 25.7567 6.93762 25.7827 7.06848C25.8087 7.19934 25.7953 7.33496 25.7443 7.45823C25.6933 7.5815 25.6068 7.68687 25.496 7.76105C25.3851 7.83523 25.2547 7.87488 25.1213 7.875H15.75C15.1533 7.875 14.581 8.11205 14.159 8.53401C13.7371 8.95597 13.5 9.52826 13.5 10.125V16.875H11.25V10.125C11.25 8.93153 11.7241 7.78693 12.568 6.94302C13.4119 6.09911 14.5565 5.625 15.75 5.625H21.3188Z" fill="#5CDB9E"/>
</svg>
