<svg width="21" height="21" viewBox="0 0 21 21" fill="none" xmlns="http://www.w3.org/2000/svg">
<path d="M4.375 4.0285V12.0654C4.37501 12.6415 4.51725 13.2088 4.7891 13.7168C5.06095 14.2247 5.45401 14.6578 5.93338 14.9774L10.5 18.0224L15.0666 14.9774C15.5459 14.6578 15.9388 14.225 16.2107 13.7171C16.4825 13.2093 16.6248 12.6423 16.625 12.0662V4.0285L10.5 2.66875L4.375 4.0285ZM3.31012 2.47275L10.5 0.875L17.6899 2.47275C17.8842 2.51594 18.058 2.62409 18.1825 2.77935C18.3071 2.93461 18.375 3.1277 18.375 3.32675V12.0654C18.3749 12.9296 18.1615 13.7805 17.7537 14.5425C17.3458 15.3045 16.7561 15.954 16.037 16.4334L10.5 20.125L4.963 16.4334C4.24399 15.9541 3.6544 15.3047 3.24655 14.5429C2.83871 13.7811 2.62521 12.9304 2.625 12.0662V3.32675C2.62503 3.1277 2.69293 2.93461 2.81749 2.77935C2.94205 2.62409 3.11582 2.51594 3.31012 2.47275ZM10.5 11.8125L7.92837 13.1644L8.41925 10.3014L6.33938 8.27312L9.21463 7.85488L10.5 5.25L11.7863 7.85488L14.6606 8.27312L12.5808 10.3014L13.0707 13.1644L10.5 11.8125Z" fill="#185B40"/>
</svg>
