<svg width="29" height="29" viewBox="0 0 29 29" fill="none" xmlns="http://www.w3.org/2000/svg">
<path d="M7.25 27.7916H21.75C22.7114 27.7916 23.6334 27.4097 24.3133 26.7298C24.9931 26.05 25.375 25.128 25.375 24.1666V4.83325C25.375 3.87184 24.9931 2.94981 24.3133 2.26999C23.6334 1.59017 22.7114 1.20825 21.75 1.20825H18.125C17.8045 1.20825 17.4972 1.33556 17.2706 1.56216C17.044 1.78877 16.9167 2.09612 16.9167 2.41659C16.9167 3.05753 16.6621 3.67221 16.2088 4.12543C15.7556 4.57864 15.1409 4.83325 14.5 4.83325C13.8591 4.83325 13.2444 4.57864 12.7912 4.12543C12.3379 3.67221 12.0833 3.05753 12.0833 2.41659C12.0833 2.09612 11.956 1.78877 11.7294 1.56216C11.5028 1.33556 11.1955 1.20825 10.875 1.20825H7.25C6.28859 1.20825 5.36656 1.59017 4.68674 2.26999C4.00692 2.94981 3.625 3.87184 3.625 4.83325V24.1666C3.625 25.128 4.00692 26.05 4.68674 26.7298C5.36656 27.4097 6.28859 27.7916 7.25 27.7916ZM6.04167 12.0833H7.10742C7.42789 12.0833 7.73523 11.9559 7.96184 11.7293C8.18844 11.5027 8.31575 11.1954 8.31575 10.8749C8.31575 10.5544 8.18844 10.2471 7.96184 10.0205C7.73523 9.79389 7.42789 9.66658 7.10742 9.66658H6.04167V4.83325C6.04167 4.51278 6.16897 4.20544 6.39558 3.97883C6.62219 3.75222 6.92953 3.62492 7.25 3.62492H9.81892C10.086 4.66351 10.6908 5.58381 11.5383 6.24093C12.3857 6.89805 13.4276 7.25469 14.5 7.25469C15.5724 7.25469 16.6143 6.89805 17.4617 6.24093C18.3092 5.58381 18.914 4.66351 19.1811 3.62492H21.75C22.0705 3.62492 22.3778 3.75222 22.6044 3.97883C22.831 4.20544 22.9583 4.51278 22.9583 4.83325V9.66658H21.8926C21.5721 9.66658 21.2648 9.79389 21.0382 10.0205C20.8116 10.2471 20.6842 10.5544 20.6842 10.8749C20.6842 11.1954 20.8116 11.5027 21.0382 11.7293C21.2648 11.9559 21.5721 12.0833 21.8926 12.0833H22.9583V24.1666C22.9583 24.4871 22.831 24.7944 22.6044 25.021C22.3778 25.2476 22.0705 25.3749 21.75 25.3749H7.25C6.92953 25.3749 6.62219 25.2476 6.39558 25.021C6.16897 24.7944 6.04167 24.4871 6.04167 24.1666V12.0833ZM9.31142 10.8749C9.31142 10.5544 9.43872 10.2471 9.66533 10.0205C9.89194 9.79389 10.1993 9.66658 10.5198 9.66658H12.7938C13.1143 9.66658 13.4216 9.79389 13.6483 10.0205C13.8749 10.2471 14.0022 10.5544 14.0022 10.8749C14.0022 11.1954 13.8749 11.5027 13.6483 11.7293C13.4216 11.9559 13.1143 12.0833 12.7938 12.0833H10.5198C10.1993 12.0833 9.89194 11.9559 9.66533 11.7293C9.43872 11.5027 9.31142 11.1954 9.31142 10.8749ZM14.9978 10.8749C14.9978 10.5544 15.1251 10.2471 15.3517 10.0205C15.5784 9.79389 15.8857 9.66658 16.2062 9.66658H18.4803C18.8007 9.66658 19.1081 9.79389 19.3347 10.0205C19.5613 10.2471 19.6886 10.5544 19.6886 10.8749C19.6886 11.1954 19.5613 11.5027 19.3347 11.7293C19.1081 11.9559 18.8007 12.0833 18.4803 12.0833H16.2062C15.8857 12.0833 15.5784 11.9559 15.3517 11.7293C15.1251 11.5027 14.9978 11.1954 14.9978 10.8749Z" fill="#5CDB9E"/>
</svg>
