<svg width="92" height="92" viewBox="0 0 92 92" fill="none" xmlns="http://www.w3.org/2000/svg">
<g filter="url(#filter0_dd)">
<rect x="25" y="21" width="41.5059" height="41.5059" rx="8" fill="#1A212E"/>
</g>
<path d="M46.6481 41.5858C46.7942 42.3294 46.83 43.1908 46.7691 44.1348C46.303 51.3565 51.53 62.5059 58.7668 62.5059C63.1101 62.5059 66.6311 58.9849 66.6311 54.6416V29.0099C66.6311 24.6249 63.1014 21.0559 58.7165 21.0282C52.2286 20.9872 45.0692 20.9771 43.3069 21.0948C40.0943 21.3093 45.3631 35.0415 46.6481 41.5858Z" fill="#63E7A7" fill-opacity="0.5"/>
<path d="M33.1424 21.0948C28.4788 21.3093 36.1271 35.0415 37.9925 41.5857C39.9786 48.5533 43.758 62.5059 51.0031 62.5059H59C63.4183 62.5059 67 58.9242 67 54.5059V29.0362C67 24.6409 63.4564 21.0683 59.0611 21.0453C48.8822 20.9918 36.028 20.962 33.1424 21.0948Z" fill="#63E7A7" fill-opacity="0.2"/>
<path d="M38.392 40.28C38.2147 39.9533 37.958 39.706 37.622 39.538C37.2953 39.3607 36.908 39.272 36.46 39.272C35.6853 39.272 35.0647 39.5287 34.598 40.042C34.1313 40.546 33.898 41.2227 33.898 42.072C33.898 42.9773 34.1407 43.6867 34.626 44.2C35.1207 44.704 35.7973 44.956 36.656 44.956C37.244 44.956 37.7387 44.8067 38.14 44.508C38.5507 44.2093 38.8493 43.78 39.036 43.22H35.998V41.456H41.206V43.682C41.0287 44.2793 40.7253 44.8347 40.296 45.348C39.876 45.8613 39.3393 46.2767 38.686 46.594C38.0327 46.9113 37.2953 47.07 36.474 47.07C35.5033 47.07 34.6353 46.86 33.87 46.44C33.114 46.0107 32.5213 45.418 32.092 44.662C31.672 43.906 31.462 43.0427 31.462 42.072C31.462 41.1013 31.672 40.238 32.092 39.482C32.5213 38.7167 33.114 38.124 33.87 37.704C34.626 37.2747 35.4893 37.06 36.46 37.06C37.636 37.06 38.6253 37.3447 39.428 37.914C40.24 38.4833 40.7767 39.272 41.038 40.28H38.392ZM46.0881 47.112C45.3227 47.112 44.6321 46.9487 44.0161 46.622C43.4094 46.2953 42.9287 45.8287 42.5741 45.222C42.2287 44.6153 42.0561 43.906 42.0561 43.094C42.0561 42.2913 42.2334 41.5867 42.5881 40.98C42.9427 40.364 43.4281 39.8927 44.0441 39.566C44.6601 39.2393 45.3507 39.076 46.1161 39.076C46.8814 39.076 47.5721 39.2393 48.1881 39.566C48.8041 39.8927 49.2894 40.364 49.6441 40.98C49.9987 41.5867 50.1761 42.2913 50.1761 43.094C50.1761 43.8967 49.9941 44.606 49.6301 45.222C49.2754 45.8287 48.7854 46.2953 48.1601 46.622C47.5441 46.9487 46.8534 47.112 46.0881 47.112ZM46.0881 45.04C46.5454 45.04 46.9327 44.872 47.2501 44.536C47.5767 44.2 47.7401 43.7193 47.7401 43.094C47.7401 42.4687 47.5814 41.988 47.2641 41.652C46.9561 41.316 46.5734 41.148 46.1161 41.148C45.6494 41.148 45.2621 41.316 44.9541 41.652C44.6461 41.9787 44.4921 42.4593 44.4921 43.094C44.4921 43.7193 44.6414 44.2 44.9401 44.536C45.2481 44.872 45.6307 45.04 46.0881 45.04ZM55.0021 47.112C54.2368 47.112 53.5461 46.9487 52.9301 46.622C52.3235 46.2953 51.8428 45.8287 51.4881 45.222C51.1428 44.6153 50.9701 43.906 50.9701 43.094C50.9701 42.2913 51.1475 41.5867 51.5021 40.98C51.8568 40.364 52.3421 39.8927 52.9581 39.566C53.5741 39.2393 54.2648 39.076 55.0301 39.076C55.7955 39.076 56.4861 39.2393 57.1021 39.566C57.7181 39.8927 58.2035 40.364 58.5581 40.98C58.9128 41.5867 59.0901 42.2913 59.0901 43.094C59.0901 43.8967 58.9081 44.606 58.5441 45.222C58.1895 45.8287 57.6995 46.2953 57.0741 46.622C56.4581 46.9487 55.7675 47.112 55.0021 47.112ZM55.0021 45.04C55.4595 45.04 55.8468 44.872 56.1641 44.536C56.4908 44.2 56.6541 43.7193 56.6541 43.094C56.6541 42.4687 56.4955 41.988 56.1781 41.652C55.8701 41.316 55.4875 41.148 55.0301 41.148C54.5635 41.148 54.1761 41.316 53.8681 41.652C53.5601 41.9787 53.4061 42.4593 53.4061 43.094C53.4061 43.7193 53.5555 44.2 53.8541 44.536C54.1621 44.872 54.5448 45.04 55.0021 45.04Z" fill="white"/>
<defs>
<filter id="filter0_dd" x="0" y="0" width="91.5059" height="91.5059" filterUnits="userSpaceOnUse" color-interpolation-filters="sRGB">
<feFlood flood-opacity="0" result="BackgroundImageFix"/>
<feColorMatrix in="SourceAlpha" type="matrix" values="0 0 0 0 0 0 0 0 0 0 0 0 0 0 0 0 0 0 127 0" result="hardAlpha"/>
<feOffset dy="4"/>
<feGaussianBlur stdDeviation="12.5"/>
<feComposite in2="hardAlpha" operator="out"/>
<feColorMatrix type="matrix" values="0 0 0 0 0 0 0 0 0 0 0 0 0 0 0 0 0 0 0.1 0"/>
<feBlend mode="normal" in2="BackgroundImageFix" result="effect1_dropShadow"/>
<feColorMatrix in="SourceAlpha" type="matrix" values="0 0 0 0 0 0 0 0 0 0 0 0 0 0 0 0 0 0 127 0" result="hardAlpha"/>
<feOffset dy="4"/>
<feGaussianBlur stdDeviation="7.5"/>
<feComposite in2="hardAlpha" operator="out"/>
<feColorMatrix type="matrix" values="0 0 0 0 0.0901961 0 0 0 0 0.72549 0 0 0 0 0.345098 0 0 0 0.05 0"/>
<feBlend mode="normal" in2="effect1_dropShadow" result="effect2_dropShadow"/>
<feBlend mode="normal" in="SourceGraphic" in2="effect2_dropShadow" result="shape"/>
</filter>
</defs>
</svg>
