<svg width="112" height="120" viewBox="0 0 112 120" fill="none" xmlns="http://www.w3.org/2000/svg">
<g filter="url(#filter0_dd_301:894)">
<g filter="url(#filter1_dd_301:894)">
<rect x="33" y="31.8411" width="41.5059" height="48.7428" rx="8" fill="#1AB260"/>
</g>
<path d="M54.6481 56.0161C54.9868 58.0414 54.7328 60.8103 54.0539 63.8068C52.496 70.6827 57.7671 80.5839 64.8173 80.5839H66.6311C71.0494 80.5839 74.6311 77.0021 74.6311 72.5839V39.8528C74.6311 35.4736 71.1103 31.9068 66.7312 31.8743C60.2395 31.826 53.0705 31.814 51.3069 31.9524C48.0943 32.2043 53.3631 48.3308 54.6481 56.0161Z" fill="#63E7A7" fill-opacity="0.5"/>
<path d="M45.9925 56.0161C46.2506 57.0794 46.2716 58.3478 46.0906 59.7464C45.093 67.4573 50.6037 80.5839 58.3789 80.5839H67C71.4183 80.5839 75 77.0021 75 72.5839V39.8836C75 35.4923 71.4626 31.9213 67.0713 31.8943C56.8907 31.8315 44.0289 31.7964 41.1424 31.9524C36.4788 32.2043 44.1271 48.3308 45.9925 56.0161Z" fill="#63E7A7" fill-opacity="0.2"/>
<path d="M46.392 53.2133C46.2147 52.8867 45.958 52.6393 45.622 52.4713C45.2953 52.294 44.908 52.2053 44.46 52.2053C43.6853 52.2053 43.0647 52.462 42.598 52.9753C42.1313 53.4793 41.898 54.156 41.898 55.0053C41.898 55.9107 42.1407 56.62 42.626 57.1333C43.1207 57.6373 43.7973 57.8893 44.656 57.8893C45.244 57.8893 45.7387 57.74 46.14 57.4413C46.5507 57.1427 46.8493 56.7133 47.036 56.1533H43.998V54.3893H49.206V56.6153C49.0287 57.2127 48.7253 57.768 48.296 58.2813C47.876 58.7947 47.3393 59.21 46.686 59.5273C46.0327 59.8447 45.2953 60.0033 44.474 60.0033C43.5033 60.0033 42.6353 59.7933 41.87 59.3733C41.114 58.944 40.5213 58.3513 40.092 57.5953C39.672 56.8393 39.462 55.976 39.462 55.0053C39.462 54.0347 39.672 53.1713 40.092 52.4153C40.5213 51.65 41.114 51.0573 41.87 50.6373C42.626 50.208 43.4893 49.9933 44.46 49.9933C45.636 49.9933 46.6253 50.278 47.428 50.8473C48.24 51.4167 48.7767 52.2053 49.038 53.2133H46.392ZM54.0881 60.0453C53.3227 60.0453 52.6321 59.882 52.0161 59.5553C51.4094 59.2287 50.9287 58.762 50.5741 58.1553C50.2287 57.5487 50.0561 56.8393 50.0561 56.0273C50.0561 55.2247 50.2334 54.52 50.5881 53.9133C50.9427 53.2973 51.4281 52.826 52.0441 52.4993C52.6601 52.1727 53.3507 52.0093 54.1161 52.0093C54.8814 52.0093 55.5721 52.1727 56.1881 52.4993C56.8041 52.826 57.2894 53.2973 57.6441 53.9133C57.9987 54.52 58.1761 55.2247 58.1761 56.0273C58.1761 56.83 57.9941 57.5393 57.6301 58.1553C57.2754 58.762 56.7854 59.2287 56.1601 59.5553C55.5441 59.882 54.8534 60.0453 54.0881 60.0453ZM54.0881 57.9733C54.5454 57.9733 54.9327 57.8053 55.2501 57.4693C55.5767 57.1333 55.7401 56.6527 55.7401 56.0273C55.7401 55.402 55.5814 54.9213 55.2641 54.5853C54.9561 54.2493 54.5734 54.0813 54.1161 54.0813C53.6494 54.0813 53.2621 54.2493 52.9541 54.5853C52.6461 54.912 52.4921 55.3927 52.4921 56.0273C52.4921 56.6527 52.6414 57.1333 52.9401 57.4693C53.2481 57.8053 53.6307 57.9733 54.0881 57.9733ZM63.0021 60.0453C62.2368 60.0453 61.5461 59.882 60.9301 59.5553C60.3235 59.2287 59.8428 58.762 59.4881 58.1553C59.1428 57.5487 58.9701 56.8393 58.9701 56.0273C58.9701 55.2247 59.1475 54.52 59.5021 53.9133C59.8568 53.2973 60.3421 52.826 60.9581 52.4993C61.5741 52.1727 62.2648 52.0093 63.0301 52.0093C63.7955 52.0093 64.4861 52.1727 65.1021 52.4993C65.7181 52.826 66.2035 53.2973 66.5581 53.9133C66.9128 54.52 67.0901 55.2247 67.0901 56.0273C67.0901 56.83 66.9081 57.5393 66.5441 58.1553C66.1895 58.762 65.6995 59.2287 65.0741 59.5553C64.4581 59.882 63.7675 60.0453 63.0021 60.0453ZM63.0021 57.9733C63.4595 57.9733 63.8468 57.8053 64.1641 57.4693C64.4908 57.1333 64.6541 56.6527 64.6541 56.0273C64.6541 55.402 64.4955 54.9213 64.1781 54.5853C63.8701 54.2493 63.4875 54.0813 63.0301 54.0813C62.5635 54.0813 62.1761 54.2493 61.8681 54.5853C61.5601 54.912 61.4061 55.3927 61.4061 56.0273C61.4061 56.6527 61.5555 57.1333 61.8541 57.4693C62.1621 57.8053 62.5448 57.9733 63.0021 57.9733Z" fill="white"/>
</g>
<defs>
<filter id="filter0_dd_301:894" x="0" y="0.841064" width="112" height="118.743" filterUnits="userSpaceOnUse" color-interpolation-filters="sRGB">
<feFlood flood-opacity="0" result="BackgroundImageFix"/>
<feColorMatrix in="SourceAlpha" type="matrix" values="0 0 0 0 0 0 0 0 0 0 0 0 0 0 0 0 0 0 127 0" result="hardAlpha"/>
<feMorphology radius="5" operator="dilate" in="SourceAlpha" result="effect1_dropShadow_301:894"/>
<feOffset dx="2" dy="4"/>
<feGaussianBlur stdDeviation="15"/>
<feComposite in2="hardAlpha" operator="out"/>
<feColorMatrix type="matrix" values="0 0 0 0 0 0 0 0 0 0 0 0 0 0 0 0 0 0 0.07 0"/>
<feBlend mode="normal" in2="BackgroundImageFix" result="effect1_dropShadow_301:894"/>
<feColorMatrix in="SourceAlpha" type="matrix" values="0 0 0 0 0 0 0 0 0 0 0 0 0 0 0 0 0 0 127 0" result="hardAlpha"/>
<feOffset dy="4"/>
<feGaussianBlur stdDeviation="7.5"/>
<feComposite in2="hardAlpha" operator="out"/>
<feColorMatrix type="matrix" values="0 0 0 0 0.0901961 0 0 0 0 0.72549 0 0 0 0 0.345098 0 0 0 0.05 0"/>
<feBlend mode="normal" in2="effect1_dropShadow_301:894" result="effect2_dropShadow_301:894"/>
<feBlend mode="normal" in="SourceGraphic" in2="effect2_dropShadow_301:894" result="shape"/>
</filter>
<filter id="filter1_dd_301:894" x="0" y="0.841064" width="111.506" height="118.743" filterUnits="userSpaceOnUse" color-interpolation-filters="sRGB">
<feFlood flood-opacity="0" result="BackgroundImageFix"/>
<feColorMatrix in="SourceAlpha" type="matrix" values="0 0 0 0 0 0 0 0 0 0 0 0 0 0 0 0 0 0 127 0" result="hardAlpha"/>
<feMorphology radius="5" operator="dilate" in="SourceAlpha" result="effect1_dropShadow_301:894"/>
<feOffset dx="2" dy="4"/>
<feGaussianBlur stdDeviation="15"/>
<feComposite in2="hardAlpha" operator="out"/>
<feColorMatrix type="matrix" values="0 0 0 0 0 0 0 0 0 0 0 0 0 0 0 0 0 0 0.07 0"/>
<feBlend mode="normal" in2="BackgroundImageFix" result="effect1_dropShadow_301:894"/>
<feColorMatrix in="SourceAlpha" type="matrix" values="0 0 0 0 0 0 0 0 0 0 0 0 0 0 0 0 0 0 127 0" result="hardAlpha"/>
<feOffset dy="4"/>
<feGaussianBlur stdDeviation="7.5"/>
<feComposite in2="hardAlpha" operator="out"/>
<feColorMatrix type="matrix" values="0 0 0 0 0.0901961 0 0 0 0 0.72549 0 0 0 0 0.345098 0 0 0 0.05 0"/>
<feBlend mode="normal" in2="effect1_dropShadow_301:894" result="effect2_dropShadow_301:894"/>
<feBlend mode="normal" in="SourceGraphic" in2="effect2_dropShadow_301:894" result="shape"/>
</filter>
</defs>
</svg>
