<svg width="112" height="112" viewBox="0 0 112 112" fill="none" xmlns="http://www.w3.org/2000/svg">
<g filter="url(#filter0_dd_301_878)">
<rect x="33" y="31" width="41.5059" height="41.5059" rx="8" fill="#161616"/>
</g>
<path d="M54.6482 51.5858C54.7942 52.3294 54.83 53.1908 54.7691 54.1348C54.303 61.3565 59.53 72.5059 66.7668 72.5059C71.1101 72.5059 74.6311 68.9849 74.6311 64.6416V39.0099C74.6311 34.6249 71.1014 31.0559 66.7165 31.0282C60.2287 30.9872 53.0692 30.9771 51.307 31.0948C48.0943 31.3093 53.3631 45.0415 54.6482 51.5858Z" fill="#63E7A7" fill-opacity="0.5"/>
<path d="M41.1424 31.0948C36.4788 31.3093 44.1271 45.0415 45.9925 51.5857C47.9786 58.5533 51.7581 72.5059 59.0031 72.5059H67C71.4183 72.5059 75 68.9242 75 64.5059V39.0362C75 34.6409 71.4564 31.0683 67.0611 31.0453C56.8822 30.9918 44.028 30.962 41.1424 31.0948Z" fill="#63E7A7" fill-opacity="0.2"/>
<path d="M47.392 50.28C47.2147 49.9533 46.958 49.706 46.622 49.538C46.2953 49.3607 45.908 49.272 45.46 49.272C44.6853 49.272 44.0647 49.5287 43.598 50.042C43.1313 50.546 42.898 51.2227 42.898 52.072C42.898 52.9773 43.1407 53.6867 43.626 54.2C44.1207 54.704 44.7973 54.956 45.656 54.956C46.244 54.956 46.7387 54.8067 47.14 54.508C47.5507 54.2093 47.8493 53.78 48.036 53.22H44.998V51.456H50.206V53.682C50.0287 54.2793 49.7253 54.8347 49.296 55.348C48.876 55.8613 48.3393 56.2767 47.686 56.594C47.0327 56.9113 46.2953 57.07 45.474 57.07C44.5033 57.07 43.6353 56.86 42.87 56.44C42.114 56.0107 41.5213 55.418 41.092 54.662C40.672 53.906 40.462 53.0427 40.462 52.072C40.462 51.1013 40.672 50.238 41.092 49.482C41.5213 48.7167 42.114 48.124 42.87 47.704C43.626 47.2747 44.4893 47.06 45.46 47.06C46.636 47.06 47.6253 47.3447 48.428 47.914C49.24 48.4833 49.7767 49.272 50.038 50.28H47.392ZM55.0881 57.112C54.3227 57.112 53.6321 56.9487 53.0161 56.622C52.4094 56.2953 51.9287 55.8287 51.5741 55.222C51.2287 54.6153 51.0561 53.906 51.0561 53.094C51.0561 52.2913 51.2334 51.5867 51.5881 50.98C51.9427 50.364 52.4281 49.8927 53.0441 49.566C53.6601 49.2393 54.3507 49.076 55.1161 49.076C55.8814 49.076 56.5721 49.2393 57.1881 49.566C57.8041 49.8927 58.2894 50.364 58.6441 50.98C58.9987 51.5867 59.1761 52.2913 59.1761 53.094C59.1761 53.8967 58.9941 54.606 58.6301 55.222C58.2754 55.8287 57.7854 56.2953 57.1601 56.622C56.5441 56.9487 55.8534 57.112 55.0881 57.112ZM55.0881 55.04C55.5454 55.04 55.9327 54.872 56.2501 54.536C56.5767 54.2 56.7401 53.7193 56.7401 53.094C56.7401 52.4687 56.5814 51.988 56.2641 51.652C55.9561 51.316 55.5734 51.148 55.1161 51.148C54.6494 51.148 54.2621 51.316 53.9541 51.652C53.6461 51.9787 53.4921 52.4593 53.4921 53.094C53.4921 53.7193 53.6414 54.2 53.9401 54.536C54.2481 54.872 54.6307 55.04 55.0881 55.04ZM64.0021 57.112C63.2368 57.112 62.5461 56.9487 61.9301 56.622C61.3235 56.2953 60.8428 55.8287 60.4881 55.222C60.1428 54.6153 59.9701 53.906 59.9701 53.094C59.9701 52.2913 60.1475 51.5867 60.5021 50.98C60.8568 50.364 61.3421 49.8927 61.9581 49.566C62.5741 49.2393 63.2648 49.076 64.0301 49.076C64.7955 49.076 65.4861 49.2393 66.1021 49.566C66.7181 49.8927 67.2035 50.364 67.5581 50.98C67.9128 51.5867 68.0901 52.2913 68.0901 53.094C68.0901 53.8967 67.9081 54.606 67.5441 55.222C67.1895 55.8287 66.6995 56.2953 66.0741 56.622C65.4581 56.9487 64.7675 57.112 64.0021 57.112ZM64.0021 55.04C64.4595 55.04 64.8468 54.872 65.1641 54.536C65.4908 54.2 65.6541 53.7193 65.6541 53.094C65.6541 52.4687 65.4955 51.988 65.1781 51.652C64.8701 51.316 64.4875 51.148 64.0301 51.148C63.5635 51.148 63.1761 51.316 62.8681 51.652C62.5601 51.9787 62.4061 52.4593 62.4061 53.094C62.4061 53.7193 62.5555 54.2 62.8541 54.536C63.1621 54.872 63.5448 55.04 64.0021 55.04Z" fill="white"/>
<defs>
<filter id="filter0_dd_301_878" x="0" y="0" width="111.506" height="111.506" filterUnits="userSpaceOnUse" color-interpolation-filters="sRGB">
<feFlood flood-opacity="0" result="BackgroundImageFix"/>
<feColorMatrix in="SourceAlpha" type="matrix" values="0 0 0 0 0 0 0 0 0 0 0 0 0 0 0 0 0 0 127 0" result="hardAlpha"/>
<feMorphology radius="5" operator="dilate" in="SourceAlpha" result="effect1_dropShadow_301_878"/>
<feOffset dx="2" dy="4"/>
<feGaussianBlur stdDeviation="15"/>
<feComposite in2="hardAlpha" operator="out"/>
<feColorMatrix type="matrix" values="0 0 0 0 0 0 0 0 0 0 0 0 0 0 0 0 0 0 0.07 0"/>
<feBlend mode="normal" in2="BackgroundImageFix" result="effect1_dropShadow_301_878"/>
<feColorMatrix in="SourceAlpha" type="matrix" values="0 0 0 0 0 0 0 0 0 0 0 0 0 0 0 0 0 0 127 0" result="hardAlpha"/>
<feOffset dy="4"/>
<feGaussianBlur stdDeviation="7.5"/>
<feComposite in2="hardAlpha" operator="out"/>
<feColorMatrix type="matrix" values="0 0 0 0 0.0901961 0 0 0 0 0.72549 0 0 0 0 0.345098 0 0 0 0.05 0"/>
<feBlend mode="normal" in2="effect1_dropShadow_301_878" result="effect2_dropShadow_301_878"/>
<feBlend mode="normal" in="SourceGraphic" in2="effect2_dropShadow_301_878" result="shape"/>
</filter>
</defs>
</svg>
