<svg width="142" height="142" viewBox="0 0 142 142" fill="none" xmlns="http://www.w3.org/2000/svg">
<g filter="url(#filter0_dd)">
<rect x="33" y="31" width="72" height="72" rx="15" fill="#5CDB9E"/>
</g>
<path d="M69.6957 66.71C69.9491 68 70.0112 69.4943 69.9055 71.1317C69.097 83.6593 78.1642 103 90.7179 103C98.2522 103 104.36 96.8922 104.36 89.3579V46.0052C104.36 37.7834 97.7424 31.0911 89.5207 31.0421C78.5722 30.9768 66.8566 30.9669 63.8998 31.1644C58.3268 31.5366 67.4665 55.3577 69.6957 66.71Z" fill="#63E7A7" fill-opacity="0.5"/>
<path d="M46.2674 31.1644C38.1775 31.5366 51.4449 55.3577 54.6809 66.71C58.1262 78.7965 64.6823 103 77.2503 103H90C98.2843 103 105 96.2843 105 88V46.0546C105 37.8133 98.3551 31.1147 90.1139 31.0727C72.6453 30.9838 51.1682 30.9389 46.2674 31.1644Z" fill="#63E7A7" fill-opacity="0.4"/>
<g clip-path="url(#clip0)">
<path d="M70.5495 55.347C71.165 55.347 71.6639 54.848 71.6639 54.2326C71.6639 53.6171 71.165 53.1182 70.5495 53.1182C69.9341 53.1182 69.4351 53.6171 69.4351 54.2326C69.4351 54.848 69.9341 55.347 70.5495 55.347Z" fill="white"/>
<path d="M80.579 54.2323C80.579 51.16 78.0795 48.6604 75.0071 48.6604H70.5496C65.0193 48.6604 60.52 53.1596 60.52 58.6899V81.1262C60.52 82.9696 59.0203 84.4693 57.1769 84.4693C56.5615 84.4693 56.0625 84.9683 56.0625 85.5837C56.0625 86.1992 56.5615 86.6981 57.1769 86.6981H77.2359C77.8513 86.6981 78.3503 86.1992 78.3503 85.5837C78.3503 83.763 77.471 82.1028 76.054 81.0744C76.6306 80.4507 77.1587 79.7861 77.6294 79.0839C81.4701 73.3537 81.5664 66.0394 77.8747 60.4496C76.9237 59.0097 76.3458 57.2635 76.1756 55.3467H79.4646C80.0801 55.3467 80.579 54.8477 80.579 54.2323ZM62.7488 58.6899C62.7488 54.3885 66.2482 50.8891 70.5496 50.8891H73.8927C73.8927 50.8891 73.8935 54.2439 73.8936 54.2497C73.9014 55.4197 74.035 56.5509 74.2889 57.6232C71.5548 57.9769 69.4351 60.3185 69.4351 63.1474V72.2111C69.4351 73.6639 68.5035 74.9034 67.2063 75.3633V72.2111C67.2063 69.5203 65.289 67.269 62.7488 66.7512V58.6899H62.7488ZM71.6907 84.4693C72.6505 83.9449 73.5527 83.3349 74.385 82.6505C75.1121 83.0479 75.6599 83.6988 75.9314 84.4693H71.6907ZM75.778 77.8429C73.1295 81.7943 68.4136 84.4693 62.8644 84.4693H61.6319C62.3328 83.5375 62.7489 82.3794 62.7489 81.1262V69.0596C64.046 69.5197 64.9777 70.7583 64.9777 72.2111V76.6687C64.9777 77.2841 65.4767 77.7831 66.0921 77.7831C69.1645 77.7831 71.664 75.2835 71.664 72.2111V63.1475C71.664 61.3043 73.1634 59.8047 75.0065 59.8043C75.2904 60.4641 75.6271 61.0907 76.0149 61.678C79.2103 66.5159 79.1173 72.8611 75.778 77.8429ZM76.1215 53.1179V51.0807C77.0699 51.4171 77.8231 52.1695 78.1593 53.1179H76.1215Z" fill="white"/>
</g>
<defs>
<filter id="filter0_dd" x="0" y="0" width="142" height="142" filterUnits="userSpaceOnUse" color-interpolation-filters="sRGB">
<feFlood flood-opacity="0" result="BackgroundImageFix"/>
<feColorMatrix in="SourceAlpha" type="matrix" values="0 0 0 0 0 0 0 0 0 0 0 0 0 0 0 0 0 0 127 0" result="hardAlpha"/>
<feMorphology radius="5" operator="dilate" in="SourceAlpha" result="effect1_dropShadow"/>
<feOffset dx="2" dy="4"/>
<feGaussianBlur stdDeviation="15"/>
<feComposite in2="hardAlpha" operator="out"/>
<feColorMatrix type="matrix" values="0 0 0 0 0 0 0 0 0 0 0 0 0 0 0 0 0 0 0.07 0"/>
<feBlend mode="normal" in2="BackgroundImageFix" result="effect1_dropShadow"/>
<feColorMatrix in="SourceAlpha" type="matrix" values="0 0 0 0 0 0 0 0 0 0 0 0 0 0 0 0 0 0 127 0" result="hardAlpha"/>
<feOffset dy="4"/>
<feGaussianBlur stdDeviation="7.5"/>
<feComposite in2="hardAlpha" operator="out"/>
<feColorMatrix type="matrix" values="0 0 0 0 0.0901961 0 0 0 0 0.72549 0 0 0 0 0.345098 0 0 0 0.05 0"/>
<feBlend mode="normal" in2="effect1_dropShadow" result="effect2_dropShadow"/>
<feBlend mode="normal" in="SourceGraphic" in2="effect2_dropShadow" result="shape"/>
</filter>
<clipPath id="clip0">
<rect width="38.0377" height="38.0377" fill="white" transform="translate(49.3019 48.6604)"/>
</clipPath>
</defs>
</svg>
